<svg width="31" height="32" viewBox="0 0 31 32" fill="none" xmlns="http://www.w3.org/2000/svg">
<g clip-path="url(#clip0_9_36)">
<path d="M15.8604 2.4129C15.6291 2.3202 15.3709 2.3202 15.1396 2.4129L3.57662 7.03772L8.23438 8.89965L20.1578 4.13146L15.8604 2.4129ZM22.7656 5.17578L10.8423 9.94397L15.5 11.8059L27.4234 7.03772L22.7656 5.17578V5.17578ZM29.0625 8.46953L16.4688 13.507V28.8559L29.0625 23.8184V8.47146V8.46953ZM14.5312 28.8578V13.5051L1.9375 8.46953V23.8203L14.5312 28.8578V28.8578ZM14.4208 0.612965C15.1136 0.335901 15.8864 0.335901 16.5792 0.612965L30.3916 6.13872C30.5712 6.21068 30.7251 6.33478 30.8336 6.495C30.942 6.65523 31 6.84425 31 7.03772V23.8203C30.9998 24.2075 30.8835 24.5857 30.6663 24.9062C30.4491 25.2267 30.1408 25.4747 29.7813 25.6183L15.8604 31.1867C15.6291 31.2794 15.3709 31.2794 15.1396 31.1867L1.22062 25.6183C0.860737 25.475 0.552076 25.2271 0.334494 24.9066C0.116912 24.5861 0.000399763 24.2077 0 23.8203L0 7.03772C4.50274e-05 6.84425 0.058016 6.65523 0.166445 6.495C0.274874 6.33478 0.428793 6.21068 0.608375 6.13872L14.4208 0.612965Z" fill="white"/>
<path d="M6.17034 14.857L4.84947 18.9222L4.04702 18.6615L5.06732 15.5213L4.00367 15.5146L4.20918 14.8821L6.08396 14.8289L6.17034 14.857ZM8.48314 15.3682L7.09166 19.6507L6.28921 19.39L7.68069 15.1074L8.48314 15.3682ZM9.97148 17.2534L8.17666 18.3213L7.24366 18.8037L7.13941 18.1291L7.92662 17.6024L9.00742 16.9401L9.97148 17.2534ZM8.15881 19.9975L7.71986 18.3146L8.43186 18.01L9.08387 20.298L8.15881 19.9975ZM12.2555 17.9955L12.9827 18.2318L12.0357 21.1462C11.9464 21.4212 11.8093 21.6344 11.6246 21.7859C11.4411 21.9398 11.2247 22.0307 10.9753 22.0585C10.7254 22.0882 10.4565 22.0563 10.1686 21.9627C10.0423 21.9217 9.91396 21.8615 9.78365 21.7822C9.6552 21.7035 9.53836 21.6081 9.43312 21.4958C9.32975 21.3842 9.25284 21.2606 9.2024 21.1251L9.71016 20.7664C9.76803 20.9044 9.84861 21.023 9.95189 21.1222C10.0546 21.2234 10.1802 21.2981 10.3288 21.3464C10.4737 21.3934 10.6051 21.4063 10.7229 21.3851C10.8401 21.3656 10.9422 21.3136 11.0293 21.2289C11.1157 21.1461 11.1822 21.0332 11.2287 20.8902L11.9511 18.6667L12.2555 17.9955ZM9.72549 18.88L9.7445 18.8215C9.81934 18.5912 9.9151 18.3913 10.0318 18.2218C10.1509 18.051 10.2845 17.9147 10.4326 17.8129C10.5826 17.7117 10.7448 17.6484 10.9194 17.623C11.094 17.5976 11.2761 17.6157 11.4655 17.6772C11.6662 17.7424 11.8222 17.8342 11.9336 17.9525C12.0451 18.0709 12.1222 18.213 12.1648 18.3788C12.208 18.5428 12.2236 18.7255 12.2116 18.9269C12.202 19.1271 12.1755 19.3413 12.1321 19.5696L12.0905 19.6978C11.9944 19.8986 11.8893 20.0801 11.775 20.2421C11.6607 20.4042 11.5361 20.5383 11.401 20.6443C11.2665 20.7485 11.1194 20.8157 10.9597 20.8459C10.8018 20.8767 10.6299 20.862 10.4442 20.8016C10.2584 20.7413 10.1027 20.6486 9.97699 20.5235C9.85314 20.3991 9.7606 20.2509 9.69938 20.0791C9.63817 19.9072 9.60894 19.7191 9.61172 19.5146C9.61635 19.3107 9.65427 19.0992 9.72549 18.88ZM10.547 19.0822L10.5279 19.1408C10.4875 19.2652 10.4619 19.3852 10.451 19.5008C10.4401 19.6164 10.4462 19.7241 10.4692 19.824C10.4947 19.9226 10.5379 20.0076 10.599 20.0787C10.6625 20.1487 10.7472 20.2008 10.8531 20.2352C10.9998 20.2829 11.1296 20.2912 11.2424 20.2601C11.3558 20.2271 11.4535 20.1634 11.5356 20.0688C11.6176 19.9743 11.6856 19.8568 11.7395 19.7162L11.8581 19.3512C11.8924 19.2329 11.9107 19.1228 11.913 19.0209C11.916 18.9171 11.9032 18.8237 11.8748 18.7405C11.8464 18.6573 11.7982 18.5842 11.7304 18.5211C11.6626 18.458 11.5739 18.4086 11.4643 18.373C11.3585 18.3386 11.2587 18.3329 11.165 18.3558C11.0737 18.3775 10.9888 18.4208 10.9102 18.4856C10.8335 18.5511 10.7641 18.6353 10.7018 18.7383C10.6402 18.8394 10.5886 18.9541 10.547 19.0822Z" fill="white"/>
</g>
<defs>
<clipPath id="clip0_9_36">
<rect width="31" height="31" fill="white" transform="translate(0 0.25647)"/>
</clipPath>
</defs>
</svg>
