<svg width="24" height="24" viewBox="0 0 24 24" fill="none" xmlns="http://www.w3.org/2000/svg">
<path d="M12 0.260864C5.52704 0.260864 0.260864 5.52704 0.260864 12C0.260864 18.473 5.52704 23.7391 12 23.7391C18.473 23.7391 23.7391 18.473 23.7391 12C23.7391 5.52704 18.473 0.260864 12 0.260864ZM12 21.3913C6.82186 21.3913 2.60869 17.1781 2.60869 12C2.60869 6.82186 6.82186 2.60869 12 2.60869C17.1781 2.60869 21.3913 6.82186 21.3913 12C21.3913 17.1781 17.1781 21.3913 12 21.3913Z" fill="#FF8C60"/>
<path d="M13.1739 6.13043H10.826V12.486L14.6917 16.3517L16.3517 14.6918L13.1739 11.514V6.13043Z" fill="#FF8C60"/>
</svg>
