<svg width="23" height="23" viewBox="0 0 23 23" fill="none" xmlns="http://www.w3.org/2000/svg">
<g clip-path="url(#clip0_133_61)">
<path d="M21.0829 2.15669H17.9684V0.719216C17.9685 0.528595 17.8929 0.345731 17.7582 0.210852C17.6235 0.075973 17.4408 0.000127251 17.2502 1.7066e-07C17.0595 -0.00012691 16.8767 0.0754751 16.7418 0.210174C16.6069 0.344874 16.5311 0.527637 16.5309 0.718258V2.15669H12.2185V0.719216C12.2186 0.62483 12.2001 0.531356 12.164 0.444131C12.1279 0.356906 12.075 0.277637 12.0084 0.210852C11.9417 0.144067 11.8625 0.0910721 11.7753 0.0548941C11.6881 0.0187161 11.5947 6.30838e-05 11.5003 1.5995e-07C11.3096 -0.000126921 11.1268 0.075475 10.9919 0.210174C10.857 0.344874 10.7812 0.527637 10.7811 0.718258V2.15669H6.46863V0.719216C6.46869 0.62483 6.45017 0.531356 6.4141 0.444131C6.37804 0.356906 6.32515 0.277637 6.25846 0.210852C6.19176 0.144067 6.11256 0.0910721 6.02539 0.0548941C5.93821 0.0187161 5.84476 6.30838e-05 5.75037 1.5995e-07C5.55975 -0.000126921 5.37689 0.075475 5.24201 0.210174C5.10713 0.344874 5.03128 0.527637 5.03116 0.718258V2.15669H1.91663C1.40848 2.15669 0.921118 2.35849 0.561707 2.71772C0.202296 3.07695 0.000254078 3.56421 0 4.07236V21.0825C0 21.5908 0.20193 22.0783 0.561368 22.4377C0.920806 22.7972 1.40831 22.9991 1.91663 22.9991H21.0829C21.5913 22.9991 22.0788 22.7972 22.4382 22.4377C22.7976 22.0783 22.9996 21.5908 22.9996 21.0825V4.07236C22.9993 3.56421 22.7973 3.07695 22.4379 2.71772C22.0785 2.35849 21.5911 2.15669 21.0829 2.15669V2.15669ZM21.5621 21.0834C21.5621 21.2103 21.5118 21.3321 21.4221 21.4219C21.3324 21.5117 21.2108 21.5623 21.0839 21.5626H1.91663C1.78955 21.5626 1.66768 21.5121 1.57782 21.4222C1.48796 21.3324 1.43747 21.2105 1.43747 21.0834V4.07332C1.43773 3.94641 1.48832 3.82478 1.57815 3.73512C1.66799 3.64547 1.78972 3.59512 1.91663 3.59512H5.03116V5.03259C5.03103 5.22322 5.10663 5.40608 5.24133 5.54096C5.37603 5.67584 5.55879 5.75168 5.74941 5.75181C5.94004 5.75194 6.1229 5.67634 6.25778 5.54164C6.39266 5.40694 6.4685 5.22417 6.46863 5.03355V3.59512H10.7811V5.03259C10.7809 5.22322 10.8565 5.40608 10.9912 5.54096C11.1259 5.67584 11.3087 5.75168 11.4993 5.75181C11.6899 5.75194 11.8728 5.67634 12.0077 5.54164C12.1426 5.40694 12.2184 5.22417 12.2185 5.03355V3.59512H16.5309V5.03259C16.5308 5.22322 16.6064 5.40608 16.7411 5.54096C16.8758 5.67584 17.0586 5.75168 17.2492 5.75181C17.4398 5.75194 17.6227 5.67634 17.7576 5.54164C17.8924 5.40694 17.9683 5.22417 17.9684 5.03355V3.59512H21.0829C21.2097 3.59537 21.3312 3.64584 21.4208 3.73546C21.5104 3.82509 21.5609 3.94657 21.5611 4.07332L21.5621 21.0834Z" fill="#FF8C60"/>
<path d="M5.03113 8.62527H7.90608V10.7815H5.03113V8.62527ZM5.03113 12.219H7.90608V14.3752H5.03113V12.219ZM5.03113 15.8126H7.90608V17.9689H5.03113V15.8126ZM10.0623 15.8126H12.9372V17.9689H10.0623V15.8126ZM10.0623 12.219H12.9372V14.3752H10.0623V12.219ZM10.0623 8.62527H12.9372V10.7815H10.0623V8.62527ZM15.0934 15.8126H17.9684V17.9689H15.0934V15.8126ZM15.0934 12.219H17.9684V14.3752H15.0934V12.219ZM15.0934 8.62527H17.9684V10.7815H15.0934V8.62527Z" fill="#FF8C60"/>
</g>
<defs>
<clipPath id="clip0_133_61">
<rect width="22.9996" height="23" fill="white"/>
</clipPath>
</defs>
</svg>
