<svg width="33" height="28" viewBox="0 0 33 28" fill="none" xmlns="http://www.w3.org/2000/svg">
<path d="M5.75224 2.5H27.2477C27.9111 2.5 28.5472 2.76351 29.0163 3.23257C29.4854 3.70162 29.7489 4.3378 29.7489 5.00115C29.7489 5.66449 29.4854 6.30067 29.0163 6.76972C28.5472 7.23878 27.9111 7.50229 27.2477 7.50229H5.75224C5.0889 7.50229 4.45272 7.23878 3.98367 6.76972C3.51461 6.30067 3.2511 5.66449 3.2511 5.00115C3.2511 4.3378 3.51461 3.70162 3.98367 3.23257C4.45272 2.76351 5.0889 2.5 5.75224 2.5ZM5.75224 11.4984H27.2477C27.5762 11.4984 27.9014 11.5631 28.2049 11.6888C28.5083 11.8145 28.784 11.9987 29.0163 12.2309C29.2486 12.4632 29.4328 12.7389 29.5585 13.0424C29.6842 13.3458 29.7489 13.6711 29.7489 13.9995C29.7489 14.328 29.6842 14.6532 29.5585 14.9567C29.4328 15.2601 29.2486 15.5358 29.0163 15.7681C28.784 16.0004 28.5083 16.1846 28.2049 16.3103C27.9014 16.436 27.5762 16.5007 27.2477 16.5007H5.75224C5.42379 16.5007 5.09855 16.436 4.7951 16.3103C4.49164 16.1846 4.21592 16.0004 3.98367 15.7681C3.75141 15.5358 3.56718 15.2601 3.44149 14.9567C3.31579 14.6532 3.2511 14.328 3.2511 13.9995C3.2511 13.6711 3.31579 13.3458 3.44149 13.0424C3.56718 12.7389 3.75141 12.4632 3.98367 12.2309C4.21592 11.9987 4.49164 11.8145 4.7951 11.6888C5.09855 11.5631 5.42379 11.4984 5.75224 11.4984ZM5.75224 20.4977H27.2477C27.5762 20.4977 27.9014 20.5624 28.2049 20.6881C28.5083 20.8138 28.784 20.998 29.0163 21.2303C29.2486 21.4625 29.4328 21.7383 29.5585 22.0417C29.6842 22.3452 29.7489 22.6704 29.7489 22.9989C29.7489 23.3273 29.6842 23.6525 29.5585 23.956C29.4328 24.2595 29.2486 24.5352 29.0163 24.7674C28.784 24.9997 28.5083 25.1839 28.2049 25.3096C27.9014 25.4353 27.5762 25.5 27.2477 25.5H5.75224C5.42379 25.5 5.09855 25.4353 4.7951 25.3096C4.49164 25.1839 4.21592 24.9997 3.98367 24.7674C3.75141 24.5352 3.56718 24.2595 3.44149 23.956C3.31579 23.6525 3.2511 23.3273 3.2511 22.9989C3.2511 22.6704 3.31579 22.3452 3.44149 22.0417C3.56718 21.7383 3.75141 21.4625 3.98367 21.2303C4.21592 20.998 4.49164 20.8138 4.7951 20.6881C5.09855 20.5624 5.42379 20.4977 5.75224 20.4977Z" fill="#FF8C60"/>
</svg>
