<svg width="50" height="50" viewBox="0 0 50 50" fill="none" xmlns="http://www.w3.org/2000/svg">
<path d="M15.0833 38C15.0833 38 13 38 13 35.9167C13 33.8333 15.0833 27.5833 25.5 27.5833C35.9167 27.5833 38 33.8333 38 35.9167C38 38 35.9167 38 35.9167 38H15.0833ZM25.5 25.5C27.1576 25.5 28.7473 24.8415 29.9194 23.6694C31.0915 22.4973 31.75 20.9076 31.75 19.25C31.75 17.5924 31.0915 16.0027 29.9194 14.8306C28.7473 13.6585 27.1576 13 25.5 13C23.8424 13 22.2527 13.6585 21.0806 14.8306C19.9085 16.0027 19.25 17.5924 19.25 19.25C19.25 20.9076 19.9085 22.4973 21.0806 23.6694C22.2527 24.8415 23.8424 25.5 25.5 25.5V25.5Z" fill="#FF8C60"/>
</svg>
