<svg width="40" height="38" viewBox="0 0 40 38" fill="none" xmlns="http://www.w3.org/2000/svg">
<path d="M17.8604 2.91292C17.6291 2.82022 17.3709 2.82022 17.1396 2.91292L5.57662 7.53773L10.2344 9.39967L22.1578 4.63148L17.8604 2.91292ZM24.7656 5.67579L12.8423 10.444L17.5 12.3059L29.4234 7.53773L24.7656 5.67579V5.67579ZM31.0625 8.96954L18.4688 14.007V29.3559L31.0625 24.3184V8.97148V8.96954ZM16.5312 29.3579V14.0051L3.9375 8.96954V24.3204L16.5312 29.3579V29.3579ZM16.4208 1.11298C17.1136 0.835916 17.8864 0.835916 18.5792 1.11298L32.3916 6.63873C32.5712 6.7107 32.7251 6.83479 32.8336 6.99502C32.942 7.15524 33 7.34426 33 7.53773V24.3204C32.9998 24.7075 32.8835 25.0857 32.6663 25.4062C32.4491 25.7267 32.1408 25.9747 31.7813 26.1184L17.8604 31.6867C17.6291 31.7794 17.3709 31.7794 17.1396 31.6867L3.22062 26.1184C2.86074 25.975 2.55208 25.7271 2.33449 25.4066C2.11691 25.0861 2.0004 24.7077 2 24.3204V7.53773C2.00005 7.34426 2.05802 7.15524 2.16644 6.99502C2.27487 6.83479 2.42879 6.7107 2.60838 6.63873L16.4208 1.11298Z" fill="#2E2E2E"/>
<path d="M7.96966 15.4224L6.64879 19.4876L5.84634 19.2269L6.86663 16.0867L5.80299 16.08L6.0085 15.4475L7.88328 15.3943L7.96966 15.4224ZM10.2825 15.9336L8.89098 20.2161L8.08852 19.9554L9.48001 15.6729L10.2825 15.9336ZM11.7708 17.8188L9.97598 18.8867L9.04298 19.3691L8.93872 18.6945L9.72593 18.1678L10.8067 17.5056L11.7708 17.8188ZM9.95813 20.5629L9.51918 18.88L10.2312 18.5754L10.8832 20.8634L9.95813 20.5629ZM14.0548 18.5609L14.782 18.7972L13.835 21.7117C13.7457 21.9866 13.6087 22.1998 13.4239 22.3513C13.2404 22.5052 13.024 22.5961 12.7747 22.624C12.5247 22.6536 12.2558 22.6217 11.9679 22.5282C11.8416 22.4871 11.7133 22.4269 11.583 22.3476C11.4545 22.2689 11.3377 22.1735 11.2324 22.0612C11.1291 21.9496 11.0522 21.8261 11.0017 21.6906L11.5095 21.3319C11.5673 21.4698 11.6479 21.5884 11.7512 21.6876C11.8539 21.7888 11.9795 21.8635 12.1281 21.9118C12.273 21.9588 12.4044 21.9717 12.5222 21.9505C12.6394 21.931 12.7415 21.879 12.8286 21.7943C12.915 21.7115 12.9815 21.5986 13.028 21.4556L13.7504 19.2321L14.0548 18.5609ZM11.5248 19.4454L11.5438 19.3869C11.6187 19.1566 11.7144 18.9567 11.8311 18.7872C11.9502 18.6164 12.0839 18.4801 12.2319 18.3783C12.3819 18.2771 12.5442 18.2138 12.7188 18.1884C12.8934 18.163 13.0754 18.1811 13.2649 18.2426C13.4655 18.3078 13.6215 18.3996 13.733 18.518C13.8444 18.6363 13.9215 18.7784 13.9641 18.9442C14.0074 19.1082 14.023 19.2909 14.0109 19.4923C14.0013 19.6925 13.9748 19.9068 13.9315 20.135L13.8898 20.2632C13.7938 20.464 13.6886 20.6455 13.5743 20.8075C13.46 20.9696 13.3354 21.1037 13.2003 21.2097C13.0658 21.3139 12.9187 21.3811 12.759 21.4113C12.6011 21.4422 12.4293 21.4274 12.2435 21.3671C12.0578 21.3067 11.902 21.214 11.7763 21.0889C11.6525 20.9645 11.5599 20.8164 11.4987 20.6445C11.4375 20.4726 11.4083 20.2845 11.411 20.08C11.4157 19.8762 11.4536 19.6646 11.5248 19.4454ZM12.3463 19.6477L12.3273 19.7062C12.2868 19.8306 12.2612 19.9506 12.2503 20.0662C12.2395 20.1818 12.2455 20.2895 12.2685 20.3894C12.294 20.4881 12.3372 20.573 12.3983 20.6442C12.4618 20.7141 12.5465 20.7662 12.6524 20.8006C12.7992 20.8483 12.9289 20.8566 13.0417 20.8255C13.1551 20.7925 13.2528 20.7288 13.3349 20.6343C13.4169 20.5398 13.4849 20.4222 13.5388 20.2816L13.6574 19.9166C13.6917 19.7983 13.71 19.6883 13.7124 19.5863C13.7153 19.4825 13.7025 19.3891 13.6741 19.3059C13.6457 19.2227 13.5976 19.1496 13.5298 19.0865C13.4619 19.0234 13.3732 18.974 13.2637 18.9384C13.1578 18.904 13.058 18.8983 12.9643 18.9212C12.873 18.9429 12.7881 18.9862 12.7096 19.051C12.6328 19.1165 12.5634 19.2007 12.5012 19.3037C12.4395 19.4048 12.3879 19.5195 12.3463 19.6477Z" fill="#2E2E2E"/>
<path d="M22.0629 32.3738L23.6641 36.337L22.8818 36.6531L21.6449 33.5917L20.8258 34.2702L20.5766 33.6536L21.9786 32.4078L22.0629 32.3738ZM26.7577 32.3823L27.0342 33.0669C27.1542 33.3638 27.2261 33.6329 27.2497 33.874C27.2727 34.1133 27.2522 34.3259 27.1883 34.5118C27.1255 34.6952 27.0257 34.8524 26.8891 34.9834C26.7524 35.1145 26.5845 35.2202 26.3853 35.3007C26.226 35.3651 26.0694 35.4052 25.9157 35.4209C25.7612 35.4349 25.6112 35.4207 25.4656 35.3784C25.3219 35.3354 25.1834 35.2639 25.0503 35.1639C24.9183 35.0614 24.7942 34.9261 24.6779 34.7583C24.5616 34.5904 24.4552 34.3869 24.3586 34.1479L24.0821 33.4633C23.9621 33.1664 23.891 32.8991 23.8687 32.6616C23.8476 32.4216 23.8684 32.2099 23.9313 32.0265C23.9959 31.8424 24.0969 31.6858 24.2343 31.5565C24.3709 31.4255 24.5389 31.3197 24.7381 31.2392C24.8974 31.1749 25.0534 31.1361 25.2061 31.1228C25.3598 31.1071 25.5091 31.1194 25.6539 31.1599C25.7988 31.2004 25.9372 31.2719 26.0692 31.3744C26.2005 31.4752 26.3243 31.6095 26.4406 31.7774C26.5561 31.9434 26.6618 32.1451 26.7577 32.3823ZM26.2909 33.4872L25.9298 32.5936C25.872 32.4505 25.8134 32.3288 25.7539 32.2286C25.6963 32.1276 25.6371 32.0462 25.5763 31.9844C25.5148 31.9208 25.4519 31.8746 25.3876 31.8458C25.3233 31.817 25.2578 31.8034 25.191 31.8051C25.1243 31.8068 25.0556 31.8219 24.985 31.8504C24.8963 31.8863 24.8244 31.9353 24.7695 31.9975C24.7164 32.059 24.6817 32.1373 24.6653 32.2324C24.6483 32.3256 24.6523 32.4399 24.6774 32.5751C24.7036 32.7077 24.7526 32.8628 24.8243 33.0402L25.1853 33.9339C25.2431 34.077 25.3012 34.1999 25.3596 34.3027C25.4198 34.4048 25.481 34.4885 25.5433 34.554C25.6066 34.6169 25.6699 34.664 25.7331 34.6953C25.7974 34.7241 25.8629 34.7376 25.9296 34.736C25.9982 34.7335 26.0678 34.7181 26.1384 34.6895C26.2253 34.6544 26.2953 34.6061 26.3484 34.5446C26.4026 34.4806 26.4379 34.4011 26.4542 34.306C26.4717 34.2084 26.4669 34.0923 26.44 33.9579C26.413 33.8234 26.3633 33.6665 26.2909 33.4872ZM29.3348 33.3981C29.4308 33.3593 29.5086 33.3068 29.5682 33.2406C29.6271 33.1726 29.6638 33.0967 29.6784 33.0128C29.694 32.9265 29.6841 32.8367 29.6486 32.7436L30.3847 32.4462C30.4663 32.6534 30.4854 32.8595 30.4418 33.0646C30.3976 33.2679 30.3026 33.4526 30.157 33.6189C30.0107 33.7833 29.8244 33.9113 29.598 34.0027C29.3698 34.0949 29.1553 34.1374 28.9543 34.1301C28.7552 34.1221 28.5724 34.0737 28.406 33.9851C28.2388 33.8946 28.091 33.7711 27.9624 33.6145C27.8331 33.4561 27.7267 33.2737 27.6433 33.0672L27.6115 32.9884C27.5274 32.7802 27.4771 32.5751 27.4608 32.3731C27.4438 32.1694 27.4644 31.9778 27.5225 31.7984C27.5799 31.6172 27.6775 31.4546 27.8151 31.3105C27.9528 31.1664 28.1348 31.0486 28.3612 30.9572C28.6021 30.8598 28.8317 30.8208 29.0501 30.84C29.2703 30.8584 29.4668 30.9328 29.6395 31.0632C29.8133 31.1909 29.9483 31.3713 30.0445 31.6042L29.3084 31.9016C29.2671 31.8045 29.2104 31.7242 29.1384 31.6606C29.0681 31.5963 28.9864 31.5556 28.8931 31.5385C28.8009 31.5189 28.7014 31.5307 28.5946 31.5738C28.4805 31.6199 28.3971 31.682 28.3444 31.7602C28.291 31.8366 28.2612 31.9244 28.255 32.0238C28.2481 32.1214 28.2577 32.226 28.2838 32.3376C28.3111 32.4467 28.3477 32.5583 28.3938 32.6724L28.4256 32.7511C28.4717 32.8652 28.5232 32.9719 28.5802 33.071C28.6371 33.1702 28.7019 33.2525 28.7747 33.3179C28.8493 33.3826 28.9323 33.4238 29.0238 33.4416C29.1152 33.4594 29.2189 33.4449 29.3348 33.3981ZM31.1707 30.593L32.1124 32.9236L31.3274 33.2408L30.1399 30.3017L30.876 30.0043L31.1707 30.593ZM31.3683 31.3948L31.151 31.4826C31.0683 31.2779 31.0167 31.0797 30.996 30.8879C30.9765 30.6936 30.9891 30.5137 31.0339 30.3481C31.0797 30.18 31.1599 30.0318 31.2744 29.9034C31.389 29.7749 31.5404 29.6727 31.7287 29.5966C31.8591 29.5439 31.9867 29.5155 32.1114 29.5115C32.2355 29.5056 32.3532 29.5286 32.4648 29.5804C32.5774 29.6297 32.6821 29.7117 32.779 29.8263C32.8751 29.9392 32.9601 30.087 33.034 30.2699L33.8264 32.2311L33.0441 32.5472L32.2868 30.6729C32.2327 30.5389 32.1729 30.443 32.1074 30.3852C32.0419 30.3274 31.9698 30.2975 31.8911 30.2956C31.8142 30.293 31.7296 30.3103 31.6372 30.3477C31.5358 30.3886 31.4555 30.4453 31.3963 30.5177C31.3388 30.5893 31.3007 30.6722 31.2818 30.7662C31.2622 30.8584 31.2603 30.9581 31.2763 31.0654C31.2923 31.1727 31.3229 31.2825 31.3683 31.3948ZM33.0814 30.5984L32.8159 30.7467C32.7383 30.5548 32.6898 30.3669 32.6703 30.183C32.6526 29.9985 32.6656 29.8247 32.7093 29.6617C32.7548 29.498 32.8343 29.3532 32.9477 29.2273C33.0604 29.0996 33.2092 28.9985 33.3939 28.9238C33.5351 28.8668 33.6721 28.8356 33.8048 28.8305C33.9368 28.8235 34.0615 28.8479 34.1788 28.9037C34.2973 28.957 34.4067 29.0454 34.5073 29.1691C34.6096 29.2921 34.7021 29.4559 34.7848 29.6605L35.5431 31.5375L34.7581 31.8547L33.9998 29.9777C33.9449 29.8419 33.8851 29.746 33.8203 29.69C33.7566 29.6314 33.6858 29.6021 33.6078 29.602C33.5309 29.5994 33.4472 29.6164 33.3567 29.653C33.2625 29.691 33.1878 29.7433 33.1325 29.8099C33.0765 29.8746 33.0382 29.9491 33.0174 30.0333C32.9967 30.1175 32.9921 30.2079 33.0037 30.3043C33.0145 30.3989 33.0404 30.4969 33.0814 30.5984Z" fill="#2E2E2E"/>
<path d="M39.7742 10.8627H35.4998V10.019H38.8015L38.4792 9.00532H39.1443L39.7742 10.7719V10.8627ZM38.0076 15.2125H37.2693C36.949 15.2125 36.6726 15.1783 36.4402 15.11C36.2097 15.0416 36.0203 14.943 35.8718 14.8141C35.7253 14.6871 35.6169 14.5357 35.5466 14.36C35.4763 14.1842 35.4412 13.9889 35.4412 13.774C35.4412 13.6022 35.4626 13.442 35.5056 13.2936C35.5505 13.1451 35.6199 13.0113 35.7136 12.8922C35.8074 12.775 35.9255 12.6734 36.0681 12.5875C36.2126 12.5035 36.3845 12.4391 36.5837 12.3941C36.783 12.3492 37.0115 12.3268 37.2693 12.3268H38.0076C38.3279 12.3268 38.6023 12.3609 38.8308 12.4293C39.0613 12.4996 39.2498 12.5982 39.3962 12.7252C39.5427 12.8541 39.6501 13.0065 39.7185 13.1822C39.7888 13.358 39.824 13.5533 39.824 13.7682C39.824 13.94 39.8015 14.0992 39.7566 14.2457C39.7136 14.3941 39.6462 14.5279 39.5544 14.6471C39.4626 14.7662 39.3445 14.8678 39.2 14.9518C39.0574 15.0357 38.8865 15.1002 38.6873 15.1451C38.49 15.19 38.2634 15.2125 38.0076 15.2125ZM37.158 14.3658H38.1218C38.2761 14.3658 38.4109 14.357 38.5261 14.3395C38.6414 14.3238 38.739 14.2994 38.8191 14.2662C38.9011 14.233 38.9675 14.192 39.0183 14.1432C39.0691 14.0943 39.1062 14.0387 39.1296 13.9762C39.1531 13.9137 39.1648 13.8443 39.1648 13.7682C39.1648 13.6725 39.1462 13.5875 39.1091 13.5133C39.072 13.441 39.0125 13.3795 38.9304 13.3287C38.8503 13.2779 38.7429 13.2389 38.6082 13.2115C38.4753 13.1861 38.3132 13.1734 38.1218 13.1734H37.158C37.0037 13.1734 36.8679 13.1813 36.7507 13.1969C36.6335 13.2145 36.533 13.2399 36.449 13.2731C36.3669 13.3082 36.2996 13.3492 36.2468 13.3961C36.196 13.4449 36.1589 13.5006 36.1355 13.5631C36.1121 13.6275 36.1003 13.6979 36.1003 13.774C36.1003 13.8678 36.1189 13.9508 36.156 14.0231C36.1951 14.0973 36.2556 14.1598 36.3376 14.2106C36.4216 14.2633 36.531 14.3024 36.6658 14.3277C36.8005 14.3531 36.9646 14.3658 37.158 14.3658ZM36.1003 17.2215C36.1003 17.325 36.1199 17.4168 36.1589 17.4968C36.2 17.5769 36.2566 17.6394 36.3289 17.6843C36.4031 17.7312 36.49 17.7556 36.5896 17.7576V18.5515C36.3669 18.5496 36.1687 18.49 35.9949 18.3728C35.823 18.2556 35.6873 18.0984 35.5876 17.9011C35.49 17.7039 35.4412 17.4832 35.4412 17.239C35.4412 16.9929 35.4822 16.7781 35.5642 16.5945C35.6462 16.4129 35.7595 16.2615 35.9041 16.1404C36.0505 16.0193 36.2205 15.9285 36.4138 15.8679C36.6091 15.8074 36.8181 15.7771 37.0408 15.7771H37.1257C37.3503 15.7771 37.5593 15.8074 37.7527 15.8679C37.948 15.9285 38.1179 16.0193 38.2625 16.1404C38.4089 16.2615 38.5232 16.4129 38.6052 16.5945C38.6873 16.7761 38.7283 16.989 38.7283 17.2332C38.7283 17.4929 38.6785 17.7205 38.5789 17.9158C38.4792 18.1131 38.3367 18.2674 38.1511 18.3787C37.9675 18.492 37.7498 18.5496 37.4978 18.5515V17.7576C37.6033 17.7556 37.699 17.7332 37.7849 17.6902C37.8708 17.6492 37.9392 17.5886 37.99 17.5086C38.0427 17.4304 38.0691 17.3338 38.0691 17.2185C38.0691 17.0955 38.0427 16.9949 37.99 16.9168C37.9392 16.8386 37.8689 16.7781 37.7791 16.7351C37.6912 16.6922 37.5906 16.6619 37.4773 16.6443C37.366 16.6287 37.2488 16.6209 37.1257 16.6209H37.0408C36.9177 16.6209 36.7996 16.6287 36.6863 16.6443C36.573 16.6599 36.4724 16.6892 36.3845 16.7322C36.2966 16.7771 36.2273 16.8386 36.1765 16.9168C36.1257 16.9949 36.1003 17.0965 36.1003 17.2215ZM38.0134 19.9745H35.4998V19.1279H38.6697V19.9218L38.0134 19.9745ZM37.196 19.8574V19.623C37.4167 19.623 37.6199 19.6493 37.8054 19.7021C37.9929 19.7568 38.155 19.8359 38.2917 19.9394C38.4304 20.0449 38.5378 20.1747 38.614 20.329C38.6902 20.4833 38.7283 20.662 38.7283 20.8652C38.7283 21.0058 38.7068 21.1347 38.6638 21.2519C38.6228 21.3691 38.5574 21.4697 38.4675 21.5536C38.3796 21.6396 38.2644 21.706 38.1218 21.7529C37.9812 21.7997 37.8123 21.8232 37.615 21.8232H35.4998V20.9794H37.5212C37.6658 20.9794 37.7771 20.9599 37.8552 20.9208C37.9333 20.8818 37.988 20.8261 38.0193 20.7538C38.0505 20.6835 38.0662 20.5986 38.0662 20.499C38.0662 20.3896 38.0437 20.2939 37.9988 20.2118C37.9539 20.1318 37.8914 20.0654 37.8113 20.0126C37.7332 19.9599 37.6414 19.9208 37.5359 19.8954C37.4304 19.87 37.3171 19.8574 37.196 19.8574ZM37.2927 21.7441L37.2546 21.4423C37.4617 21.4423 37.6541 21.4677 37.8318 21.5185C38.0095 21.5712 38.1658 21.6484 38.3005 21.7499C38.4353 21.8534 38.5398 21.9814 38.614 22.1337C38.6902 22.2861 38.7283 22.4618 38.7283 22.6611C38.7283 22.8134 38.7058 22.9521 38.6609 23.0771C38.6179 23.2021 38.5486 23.3085 38.4529 23.3964C38.3591 23.4863 38.2361 23.5546 38.0837 23.6015C37.9314 23.6503 37.7449 23.6747 37.5242 23.6747H35.4998V22.8281H37.5242C37.6707 22.8281 37.782 22.8085 37.8582 22.7695C37.9363 22.7324 37.99 22.6777 38.0193 22.6054C38.0505 22.5351 38.0662 22.4511 38.0662 22.3534C38.0662 22.2519 38.0457 22.163 38.0046 22.0868C37.9656 22.0107 37.9109 21.9472 37.8406 21.8964C37.7703 21.8456 37.6882 21.8075 37.5945 21.7822C37.5027 21.7568 37.4021 21.7441 37.2927 21.7441Z" fill="#2E2E2E"/>
<path d="M3.77002 28.581L2.1688 32.5442L1.38649 32.2281L2.62335 29.1668L1.56276 29.0858L1.81189 28.4692L3.68581 28.547L3.77002 28.581ZM7.14127 31.8484L6.86471 32.5329C6.74472 32.8299 6.6095 33.0734 6.45905 33.2633C6.30933 33.4513 6.14691 33.59 5.97178 33.6794C5.7992 33.7676 5.61825 33.8114 5.42893 33.8108C5.23961 33.8101 5.04535 33.7696 4.84615 33.6891C4.68679 33.6247 4.54634 33.5448 4.42481 33.4493C4.30401 33.3521 4.20593 33.2377 4.13059 33.1061C4.05705 32.9753 4.00715 32.8277 3.98088 32.6633C3.95716 32.4978 3.96178 32.3143 3.99476 32.1128C4.02774 31.9112 4.09252 31.691 4.18909 31.4519L4.46566 30.7674C4.58565 30.4704 4.72014 30.2288 4.86912 30.0425C5.02065 29.8552 5.18271 29.7174 5.35529 29.6291C5.52968 29.5416 5.71117 29.499 5.89976 29.5015C6.08908 29.5022 6.28335 29.5427 6.48254 29.6232C6.6419 29.6876 6.78108 29.7681 6.90007 29.8646C7.0216 29.96 7.12041 30.0726 7.19648 30.2024C7.27256 30.3321 7.32246 30.4797 7.34619 30.6452C7.37065 30.8088 7.36639 30.9914 7.33341 31.193C7.30117 31.3927 7.23712 31.6112 7.14127 31.8484ZM6.03798 32.319L6.39905 31.4253C6.45685 31.2822 6.49918 31.154 6.52605 31.0406C6.55473 30.9279 6.56868 30.8282 6.56789 30.7415C6.56783 30.653 6.55468 30.5761 6.52843 30.5107C6.50218 30.4453 6.46447 30.3901 6.4153 30.3449C6.36613 30.2998 6.30624 30.2629 6.23561 30.2344C6.14688 30.1985 6.06115 30.1839 5.97844 30.1905C5.89753 30.1979 5.81817 30.23 5.74036 30.2871C5.66328 30.3423 5.58682 30.4273 5.51098 30.542C5.43769 30.6556 5.36519 30.8012 5.29349 30.9786L4.93242 31.8723C4.87462 32.0154 4.83101 32.1442 4.8016 32.2587C4.774 32.3739 4.75986 32.4767 4.75918 32.567C4.76105 32.6562 4.77384 32.7341 4.79754 32.8005C4.82379 32.8659 4.8615 32.9211 4.91067 32.9663C4.96165 33.0122 5.02246 33.0494 5.09308 33.0779C5.18 33.113 5.26392 33.1269 5.34482 33.1196C5.42827 33.1112 5.5089 33.0784 5.58671 33.0214C5.66707 32.9633 5.74426 32.8765 5.81829 32.7611C5.89231 32.6456 5.96554 32.4983 6.03798 32.319ZM8.28947 34.3693C8.38545 34.4081 8.47788 34.4244 8.56676 34.4182C8.65637 34.4101 8.73554 34.381 8.80426 34.3309C8.87553 34.2796 8.93072 34.2082 8.96985 34.1165L9.70598 34.414C9.62076 34.6197 9.49127 34.7812 9.31749 34.8984C9.14445 35.0139 8.94783 35.0808 8.72761 35.0993C8.50813 35.116 8.2852 35.0786 8.05884 34.9871C7.83066 34.8949 7.64683 34.7764 7.50733 34.6316C7.36965 34.4875 7.27174 34.3257 7.21361 34.1464C7.1562 33.9652 7.13565 33.7736 7.15195 33.5716C7.16897 33.3679 7.21919 33.1628 7.3026 32.9563L7.33443 32.8775C7.41857 32.6693 7.52492 32.4869 7.6535 32.3303C7.7828 32.1719 7.93066 32.0483 8.09708 31.9597C8.26423 31.8692 8.44738 31.82 8.64652 31.812C8.84566 31.804 9.05842 31.8457 9.28478 31.9371C9.52563 32.0345 9.71794 32.1659 9.86172 32.3314C10.0073 32.4976 10.097 32.6876 10.1307 32.9014C10.1669 33.114 10.1388 33.3375 10.0462 33.5719L9.31007 33.2745C9.34776 33.1759 9.36279 33.0788 9.35514 32.983C9.34931 32.888 9.31878 32.8019 9.26355 32.7248C9.21087 32.6467 9.13111 32.586 9.02426 32.5428C8.91018 32.4967 8.80704 32.4835 8.71485 32.5031C8.62339 32.521 8.54091 32.5635 8.46741 32.6307C8.39465 32.6961 8.3289 32.778 8.27017 32.8764C8.21398 32.9738 8.16283 33.0795 8.11674 33.1936L8.08491 33.2724C8.03882 33.3865 8.0018 33.499 7.97385 33.6099C7.9459 33.7207 7.93538 33.825 7.9423 33.9226C7.95102 34.0209 7.98209 34.1082 8.03551 34.1846C8.08892 34.2609 8.17358 34.3225 8.28947 34.3693ZM11.5587 33.6269L10.6171 35.9575L9.83208 35.6403L11.0196 32.7012L11.7557 32.9987L11.5587 33.6269ZM11.1439 34.3408L10.9266 34.253C11.0093 34.0484 11.1098 33.8699 11.2282 33.7177C11.3491 33.5643 11.4832 33.4436 11.6304 33.3556C11.7801 33.2666 11.9408 33.2156 12.1124 33.2028C12.284 33.19 12.464 33.2216 12.6523 33.2977C12.7827 33.3504 12.8942 33.4186 12.9867 33.5023C13.08 33.5843 13.1488 33.6826 13.193 33.7974C13.2397 33.9111 13.2581 34.0428 13.2482 34.1925C13.239 34.3405 13.1974 34.5059 13.1235 34.6888L12.3311 36.65L11.5488 36.3339L12.3061 34.4597C12.3602 34.3256 12.3838 34.2151 12.3769 34.128C12.3699 34.041 12.3388 33.9694 12.2835 33.9134C12.23 33.8581 12.1571 33.8117 12.0647 33.7744C11.9633 33.7335 11.8662 33.7184 11.7733 33.7293C11.6822 33.741 11.5972 33.7741 11.5183 33.8286C11.4402 33.8812 11.3696 33.9517 11.3065 34.04C11.2435 34.1283 11.1893 34.2286 11.1439 34.3408ZM12.9294 34.958L12.6354 34.8802C12.7129 34.6883 12.8086 34.5194 12.9222 34.3737C13.0377 34.2286 13.1678 34.1126 13.3124 34.0257C13.4589 33.9396 13.6166 33.8906 13.7857 33.8789C13.9555 33.8653 14.1327 33.8958 14.3174 33.9705C14.4587 34.0275 14.5788 34.1003 14.6779 34.1888C14.7777 34.2755 14.8504 34.3796 14.8961 34.5013C14.9443 34.6219 14.9615 34.7615 14.9479 34.9204C14.9361 35.0799 14.8889 35.262 14.8062 35.4666L14.0479 37.3436L13.2628 37.0265L14.0212 35.1494C14.0761 35.0136 14.0997 34.9031 14.092 34.8178C14.0868 34.7315 14.0563 34.6612 14.0002 34.607C13.9467 34.5517 13.8747 34.5057 13.7842 34.4691C13.69 34.4311 13.5999 34.4168 13.5139 34.4263C13.4287 34.434 13.3493 34.4609 13.2759 34.5071C13.2025 34.5533 13.1365 34.615 13.0778 34.6925C13.0199 34.7681 12.9704 34.8566 12.9294 34.958Z" fill="#2E2E2E"/>
</svg>
