<svg width="41" height="37" viewBox="0 0 41 37" fill="none" xmlns="http://www.w3.org/2000/svg">
<path d="M18.8604 2.41292C18.6291 2.32022 18.3709 2.32022 18.1396 2.41292L6.57662 7.03773L11.2344 8.89967L23.1578 4.13148L18.8604 2.41292ZM25.7656 5.17579L13.8423 9.94398L18.5 11.8059L30.4234 7.03773L25.7656 5.17579V5.17579ZM32.0625 8.46954L19.4688 13.507V28.8559L32.0625 23.8184V8.47148V8.46954ZM17.5312 28.8579V13.5051L4.9375 8.46954V23.8204L17.5312 28.8579V28.8579ZM17.4208 0.61298C18.1136 0.335916 18.8864 0.335916 19.5792 0.61298L33.3916 6.13873C33.5712 6.2107 33.7251 6.33479 33.8336 6.49502C33.942 6.65524 34 6.84426 34 7.03773V23.8204C33.9998 24.2075 33.8835 24.5857 33.6663 24.9062C33.4491 25.2267 33.1408 25.4747 32.7813 25.6184L18.8604 31.1867C18.6291 31.2794 18.3709 31.2794 18.1396 31.1867L4.22062 25.6184C3.86074 25.475 3.55208 25.2271 3.33449 24.9066C3.11691 24.5861 3.0004 24.2077 3 23.8204V7.03773C3.00005 6.84426 3.05802 6.65524 3.16644 6.49502C3.27487 6.33479 3.42879 6.2107 3.60838 6.13873L17.4208 0.61298Z" fill="white"/>
<path d="M9.17034 14.857L7.84947 18.9222L7.04702 18.6615L8.06732 15.5213L7.00367 15.5146L7.20918 14.8821L9.08396 14.8289L9.17034 14.857ZM11.4831 15.3682L10.0917 19.6507L9.28921 19.39L10.6807 15.1075L11.4831 15.3682ZM12.9715 17.2534L11.1767 18.3213L10.2437 18.8037L10.1394 18.1291L10.9266 17.6024L12.0074 16.9402L12.9715 17.2534ZM11.1588 19.9975L10.7199 18.3146L11.4319 18.01L12.0839 20.298L11.1588 19.9975ZM15.2555 17.9955L15.9827 18.2318L15.0357 21.1463C14.9464 21.4212 14.8093 21.6344 14.6246 21.7859C14.4411 21.9398 14.2247 22.0307 13.9753 22.0586C13.7254 22.0882 13.4565 22.0563 13.1686 21.9628C13.0423 21.9217 12.914 21.8615 12.7837 21.7822C12.6552 21.7035 12.5384 21.6081 12.4331 21.4958C12.3297 21.3842 12.2528 21.2607 12.2024 21.1252L12.7102 20.7665C12.768 20.9044 12.8486 21.023 12.9519 21.1222C13.0546 21.2234 13.1802 21.2981 13.3288 21.3464C13.4737 21.3934 13.6051 21.4063 13.7229 21.3851C13.8401 21.3656 13.9422 21.3136 14.0293 21.2289C14.1157 21.1461 14.1822 21.0332 14.2287 20.8902L14.9511 18.6667L15.2555 17.9955ZM12.7255 18.88L12.7445 18.8215C12.8193 18.5912 12.9151 18.3913 13.0318 18.2218C13.1509 18.051 13.2845 17.9147 13.4326 17.8129C13.5826 17.7117 13.7448 17.6484 13.9194 17.623C14.094 17.5976 14.2761 17.6157 14.4655 17.6772C14.6662 17.7424 14.8222 17.8342 14.9336 17.9526C15.0451 18.0709 15.1222 18.213 15.1648 18.3788C15.208 18.5428 15.2236 18.7255 15.2116 18.9269C15.202 19.1271 15.1755 19.3414 15.1321 19.5696L15.0905 19.6978C14.9944 19.8986 14.8893 20.0801 14.775 20.2421C14.6607 20.4042 14.5361 20.5383 14.401 20.6443C14.2665 20.7485 14.1194 20.8157 13.9597 20.8459C13.8018 20.8768 13.6299 20.862 13.4442 20.8017C13.2584 20.7413 13.1027 20.6486 12.977 20.5235C12.8531 20.3991 12.7606 20.251 12.6994 20.0791C12.6382 19.9072 12.6089 19.7191 12.6117 19.5146C12.6163 19.3108 12.6543 19.0992 12.7255 18.88ZM13.547 19.0823L13.5279 19.1408C13.4875 19.2652 13.4619 19.3852 13.451 19.5008C13.4401 19.6164 13.4462 19.7241 13.4692 19.824C13.4947 19.9227 13.5379 20.0076 13.599 20.0788C13.6625 20.1487 13.7472 20.2008 13.8531 20.2353C13.9998 20.2829 14.1296 20.2912 14.2424 20.2601C14.3558 20.2271 14.4535 20.1634 14.5356 20.0689C14.6176 19.9744 14.6856 19.8568 14.7395 19.7162L14.8581 19.3512C14.8924 19.2329 14.9107 19.1229 14.913 19.0209C14.916 18.9171 14.9032 18.8237 14.8748 18.7405C14.8464 18.6573 14.7982 18.5842 14.7304 18.5211C14.6626 18.458 14.5739 18.4086 14.4643 18.373C14.3585 18.3386 14.2587 18.3329 14.165 18.3558C14.0737 18.3775 13.9888 18.4208 13.9102 18.4856C13.8335 18.5511 13.7641 18.6353 13.7018 18.7383C13.6402 18.8394 13.5886 18.9541 13.547 19.0823Z" fill="white"/>
<path d="M40.5374 10.3627H36.2629V9.51899L39.5647 9.51899L39.2424 8.50532H39.9075L40.5374 10.2719V10.3627ZM38.7708 14.7125H38.0325C37.7122 14.7125 37.4358 14.6783 37.2034 14.61C36.9729 14.5416 36.7834 14.443 36.635 14.3141C36.4885 14.1871 36.3801 14.0357 36.3098 13.86C36.2395 13.6842 36.2043 13.4889 36.2043 13.274C36.2043 13.1022 36.2258 12.942 36.2688 12.7936C36.3137 12.6451 36.3831 12.5113 36.4768 12.3922C36.5706 12.275 36.6887 12.1734 36.8313 12.0875C36.9758 12.0035 37.1477 11.9391 37.3469 11.8941C37.5461 11.8492 37.7747 11.8268 38.0325 11.8268H38.7708C39.0911 11.8268 39.3655 11.8609 39.594 11.9293C39.8245 11.9996 40.0129 12.0982 40.1594 12.2252C40.3059 12.3541 40.4133 12.5065 40.4817 12.6822C40.552 12.858 40.5872 13.0533 40.5872 13.2682C40.5872 13.44 40.5647 13.5992 40.5198 13.7457C40.4768 13.8941 40.4094 14.0279 40.3176 14.1471C40.2258 14.2662 40.1077 14.3678 39.9631 14.4518C39.8206 14.5357 39.6497 14.6002 39.4504 14.6451C39.2532 14.69 39.0266 14.7125 38.7708 14.7125ZM37.9211 13.8658H38.885C39.0393 13.8658 39.1741 13.857 39.2893 13.8395C39.4045 13.8238 39.5022 13.7994 39.5823 13.7662C39.6643 13.733 39.7307 13.692 39.7815 13.6432C39.8323 13.5943 39.8694 13.5387 39.8928 13.4762C39.9163 13.4137 39.928 13.3443 39.928 13.2682C39.928 13.1725 39.9094 13.0875 39.8723 13.0133C39.8352 12.941 39.7756 12.8795 39.6936 12.8287C39.6135 12.7779 39.5061 12.7389 39.3713 12.7115C39.2385 12.6861 39.0764 12.6734 38.885 12.6734H37.9211C37.7668 12.6734 37.6311 12.6813 37.5139 12.6969C37.3967 12.7145 37.2961 12.7399 37.2122 12.7731C37.1301 12.8082 37.0627 12.8492 37.01 12.8961C36.9592 12.9449 36.9221 13.0006 36.8987 13.0631C36.8752 13.1275 36.8635 13.1979 36.8635 13.274C36.8635 13.3678 36.8821 13.4508 36.9192 13.5231C36.9583 13.5973 37.0188 13.6598 37.1008 13.7106C37.1848 13.7633 37.2942 13.8024 37.429 13.8277C37.5637 13.8531 37.7278 13.8658 37.9211 13.8658ZM36.8635 16.7215C36.8635 16.825 36.8831 16.9168 36.9221 16.9968C36.9631 17.0769 37.0198 17.1394 37.092 17.1843C37.1663 17.2312 37.2532 17.2556 37.3528 17.2576V18.0515C37.1301 18.0496 36.9319 17.99 36.7581 17.8728C36.5862 17.7556 36.4504 17.5984 36.3508 17.4011C36.2532 17.2039 36.2043 16.9832 36.2043 16.739C36.2043 16.4929 36.2454 16.2781 36.3274 16.0945C36.4094 15.9129 36.5227 15.7615 36.6672 15.6404C36.8137 15.5193 36.9836 15.4285 37.177 15.3679C37.3723 15.3074 37.5813 15.2771 37.804 15.2771H37.8889C38.1135 15.2771 38.3225 15.3074 38.5159 15.3679C38.7112 15.4285 38.8811 15.5193 39.0256 15.6404C39.1721 15.7615 39.2864 15.9129 39.3684 16.0945C39.4504 16.2761 39.4915 16.489 39.4915 16.7332C39.4915 16.9929 39.4417 17.2205 39.342 17.4158C39.2424 17.6131 39.0999 17.7674 38.9143 17.8787C38.7307 17.992 38.5129 18.0496 38.261 18.0515V17.2576C38.3665 17.2556 38.4622 17.2332 38.5481 17.1902C38.634 17.1492 38.7024 17.0886 38.7532 17.0086C38.8059 16.9304 38.8323 16.8338 38.8323 16.7185C38.8323 16.5955 38.8059 16.4949 38.7532 16.4168C38.7024 16.3386 38.6321 16.2781 38.5422 16.2351C38.4543 16.1922 38.3538 16.1619 38.2405 16.1443C38.1292 16.1287 38.012 16.1209 37.8889 16.1209H37.804C37.6809 16.1209 37.5627 16.1287 37.4495 16.1443C37.3362 16.1599 37.2356 16.1892 37.1477 16.2322C37.0598 16.2771 36.9905 16.3386 36.9397 16.4168C36.8889 16.4949 36.8635 16.5965 36.8635 16.7215ZM38.7766 19.4745H36.2629V18.6279H39.4329V19.4218L38.7766 19.4745ZM37.9592 19.3574V19.123C38.1799 19.123 38.3831 19.1493 38.5686 19.2021C38.7561 19.2568 38.9182 19.3359 39.0549 19.4394C39.1936 19.5449 39.301 19.6747 39.3772 19.829C39.4534 19.9833 39.4915 20.162 39.4915 20.3652C39.4915 20.5058 39.47 20.6347 39.427 20.7519C39.386 20.8691 39.3206 20.9697 39.2307 21.0536C39.1428 21.1396 39.0276 21.206 38.885 21.2529C38.7444 21.2997 38.5754 21.3232 38.3782 21.3232H36.2629V20.4794H38.2844C38.429 20.4794 38.5403 20.4599 38.6184 20.4208C38.6965 20.3818 38.7512 20.3261 38.7825 20.2538C38.8137 20.1835 38.8293 20.0986 38.8293 19.999C38.8293 19.8896 38.8069 19.7939 38.762 19.7118C38.717 19.6318 38.6545 19.5654 38.5745 19.5126C38.4963 19.4599 38.4045 19.4208 38.2991 19.3954C38.1936 19.37 38.0803 19.3574 37.9592 19.3574ZM38.0559 21.2441L38.0178 20.9423C38.2249 20.9423 38.4172 20.9677 38.595 21.0185C38.7727 21.0712 38.929 21.1484 39.0637 21.2499C39.1985 21.3534 39.303 21.4814 39.3772 21.6337C39.4534 21.7861 39.4915 21.9618 39.4915 22.1611C39.4915 22.3134 39.469 22.4521 39.4241 22.5771C39.3811 22.7021 39.3118 22.8085 39.2161 22.8964C39.1223 22.9863 38.9993 23.0546 38.8469 23.1015C38.6946 23.1503 38.5081 23.1747 38.2874 23.1747H36.2629V22.3281H38.2874C38.4338 22.3281 38.5452 22.3085 38.6213 22.2695C38.6995 22.2324 38.7532 22.1777 38.7825 22.1054C38.8137 22.0351 38.8293 21.9511 38.8293 21.8534C38.8293 21.7519 38.8088 21.663 38.7678 21.5868C38.7288 21.5107 38.6741 21.4472 38.6038 21.3964C38.5334 21.3456 38.4514 21.3075 38.3577 21.2822C38.2659 21.2568 38.1653 21.2441 38.0559 21.2441Z" fill="white"/>
<path d="M22.5629 31.8801L24.1641 35.8433L23.3818 36.1593L22.1449 33.098L21.3258 33.7765L21.0766 33.1599L22.4786 31.9141L22.5629 31.8801ZM27.2577 31.8886L27.5342 32.5731C27.6542 32.8701 27.7261 33.1392 27.7497 33.3803C27.7727 33.6196 27.7522 33.8322 27.6883 34.0181C27.6255 34.2015 27.5257 34.3587 27.3891 34.4897C27.2524 34.6208 27.0845 34.7265 26.8853 34.807C26.726 34.8714 26.5694 34.9115 26.4157 34.9272C26.2612 34.9412 26.1112 34.927 25.9656 34.8847C25.8219 34.8417 25.6834 34.7702 25.5503 34.6702C25.4183 34.5676 25.2942 34.4324 25.1779 34.2645C25.0616 34.0967 24.9552 33.8932 24.8586 33.6542L24.5821 32.9696C24.4621 32.6726 24.391 32.4054 24.3687 32.1679C24.3476 31.9279 24.3684 31.7162 24.4313 31.5328C24.4959 31.3487 24.5969 31.192 24.7343 31.0628C24.8709 30.9318 25.0389 30.826 25.2381 30.7455C25.3974 30.6811 25.5534 30.6423 25.7061 30.6291C25.8598 30.6134 26.0091 30.6257 26.1539 30.6662C26.2988 30.7067 26.4372 30.7782 26.5692 30.8807C26.7005 30.9815 26.8243 31.1158 26.9406 31.2837C27.0561 31.4497 27.1618 31.6514 27.2577 31.8886ZM26.7909 32.9935L26.4298 32.0998C26.372 31.9568 26.3134 31.8351 26.2539 31.7349C26.1963 31.6339 26.1371 31.5525 26.0763 31.4907C26.0148 31.427 25.9519 31.3808 25.8876 31.3521C25.8233 31.3233 25.7578 31.3097 25.691 31.3114C25.6243 31.3131 25.5556 31.3282 25.485 31.3567C25.3963 31.3926 25.3244 31.4416 25.2695 31.5038C25.2164 31.5653 25.1817 31.6436 25.1653 31.7386C25.1483 31.8319 25.1523 31.9461 25.1774 32.0813C25.2036 32.214 25.2526 32.3691 25.3243 32.5465L25.6853 33.4402C25.7431 33.5833 25.8012 33.7062 25.8596 33.809C25.9198 33.9111 25.981 33.9948 26.0433 34.0602C26.1066 34.1231 26.1699 34.1702 26.2331 34.2016C26.2974 34.2304 26.3629 34.2439 26.4296 34.2422C26.4982 34.2398 26.5678 34.2244 26.6384 34.1958C26.7253 34.1607 26.7953 34.1124 26.8484 34.0509C26.9026 33.9869 26.9379 33.9074 26.9542 33.8123C26.9717 33.7147 26.9669 33.5986 26.94 33.4641C26.913 33.3297 26.8633 33.1728 26.7909 32.9935ZM29.8348 32.9044C29.9308 32.8656 30.0086 32.8131 30.0682 32.7469C30.1271 32.6789 30.1638 32.603 30.1784 32.5191C30.194 32.4327 30.1841 32.343 30.1486 32.2499L30.8847 31.9525C30.9663 32.1597 30.9854 32.3658 30.9418 32.5709C30.8976 32.7741 30.8026 32.9589 30.657 33.1251C30.5107 33.2896 30.3244 33.4175 30.098 33.509C29.8698 33.6012 29.6553 33.6436 29.4543 33.6364C29.2552 33.6283 29.0724 33.58 28.906 33.4914C28.7388 33.4009 28.591 33.2774 28.4624 33.1208C28.3331 32.9624 28.2267 32.78 28.1433 32.5735L28.1115 32.4947C28.0274 32.2865 27.9771 32.0814 27.9608 31.8794C27.9438 31.6756 27.9644 31.4841 28.0225 31.3047C28.0799 31.1235 28.1775 30.9609 28.3151 30.8168C28.4528 30.6727 28.6348 30.5549 28.8612 30.4634C29.1021 30.3661 29.3317 30.3271 29.5501 30.3463C29.7703 30.3647 29.9668 30.4391 30.1395 30.5694C30.3133 30.6972 30.4483 30.8776 30.5445 31.1104L29.8084 31.4079C29.7671 31.3108 29.7104 31.2305 29.6384 31.1669C29.5681 31.1026 29.4864 31.0619 29.3931 31.0448C29.3009 31.0252 29.2014 31.0369 29.0946 31.0801C28.9805 31.1262 28.8971 31.1883 28.8444 31.2665C28.791 31.3428 28.7612 31.4307 28.755 31.5301C28.7481 31.6277 28.7577 31.7323 28.7838 31.8439C28.8111 31.953 28.8477 32.0646 28.8938 32.1787L28.9256 32.2574C28.9717 32.3715 29.0232 32.4782 29.0802 32.5773C29.1371 32.6765 29.2019 32.7588 29.2747 32.8242C29.3493 32.8889 29.4323 32.9301 29.5238 32.9479C29.6152 32.9657 29.7189 32.9512 29.8348 32.9044ZM31.6707 30.0993L32.6124 32.4299L31.8274 32.7471L30.6399 29.808L31.376 29.5106L31.6707 30.0993ZM31.8683 30.9011L31.651 30.9889C31.5683 30.7842 31.5167 30.586 31.496 30.3942C31.4765 30.1999 31.4891 30.02 31.5339 29.8544C31.5797 29.6863 31.6599 29.5381 31.7744 29.4096C31.889 29.2812 32.0404 29.179 32.2287 29.1029C32.3591 29.0502 32.4867 29.0218 32.6114 29.0178C32.7355 29.0119 32.8532 29.0349 32.9648 29.0867C33.0774 29.136 33.1821 29.218 33.279 29.3326C33.3751 29.4454 33.4601 29.5933 33.534 29.7762L34.3264 31.7374L33.5441 32.0535L32.7868 30.1792C32.7327 30.0452 32.6729 29.9493 32.6074 29.8915C32.5419 29.8337 32.4698 29.8038 32.3911 29.8019C32.3142 29.7993 32.2296 29.8166 32.1372 29.854C32.0358 29.8949 31.9555 29.9516 31.8963 30.024C31.8388 30.0956 31.8007 30.1785 31.7818 30.2725C31.7622 30.3646 31.7603 30.4644 31.7763 30.5717C31.7923 30.679 31.8229 30.7888 31.8683 30.9011ZM33.5814 30.1046L33.3159 30.253C33.2383 30.061 33.1898 29.8732 33.1703 29.6893C33.1526 29.5048 33.1656 29.331 33.2093 29.168C33.2548 29.0043 33.3343 28.8595 33.4477 28.7336C33.5604 28.6059 33.7092 28.5047 33.8939 28.4301C34.0351 28.373 34.1721 28.3419 34.3048 28.3367C34.4368 28.3298 34.5615 28.3542 34.6788 28.41C34.7973 28.4633 34.9067 28.5517 35.0073 28.6754C35.1096 28.7984 35.2021 28.9622 35.2848 29.1668L36.0431 31.0438L35.2581 31.361L34.4998 29.484C34.4449 29.3482 34.3851 29.2523 34.3203 29.1963C34.2566 29.1377 34.1858 29.1084 34.1078 29.1083C34.0309 29.1057 33.9472 29.1227 33.8567 29.1592C33.7625 29.1973 33.6878 29.2496 33.6325 29.3162C33.5765 29.3809 33.5382 29.4554 33.5174 29.5396C33.4967 29.6238 33.4921 29.7142 33.5037 29.8106C33.5145 29.9052 33.5404 30.0032 33.5814 30.1046Z" fill="white"/>
<path d="M3.39227 28.081L1.79105 32.0442L1.00874 31.7281L2.2456 28.6668L1.18502 28.5858L1.43414 27.9692L3.30807 28.047L3.39227 28.081ZM6.76353 31.3484L6.48696 32.0329C6.36697 32.3299 6.23175 32.5734 6.0813 32.7633C5.93158 32.9513 5.76916 33.09 5.59404 33.1794C5.42145 33.2676 5.2405 33.3114 5.05118 33.3108C4.86186 33.3101 4.6676 33.2696 4.4684 33.1891C4.30904 33.1247 4.16859 33.0448 4.04706 32.9493C3.92626 32.8521 3.82819 32.7377 3.75284 32.6061C3.67931 32.4753 3.62941 32.3277 3.60314 32.1633C3.57941 31.9978 3.58404 31.8143 3.61701 31.6128C3.64999 31.4112 3.71477 31.191 3.81135 30.9519L4.08791 30.2674C4.2079 29.9704 4.34239 29.7288 4.49138 29.5425C4.6429 29.3552 4.80496 29.2174 4.97754 29.1291C5.15194 29.0416 5.33343 28.999 5.52202 29.0015C5.71134 29.0022 5.9056 29.0427 6.1048 29.1232C6.26416 29.1876 6.40333 29.2681 6.52232 29.3646C6.64386 29.46 6.74266 29.5726 6.81874 29.7024C6.89482 29.8321 6.94472 29.9797 6.96844 30.1452C6.9929 30.3088 6.98864 30.4914 6.95566 30.693C6.92342 30.8927 6.85937 31.1112 6.76353 31.3484ZM5.66023 31.819L6.0213 30.9253C6.0791 30.7822 6.12144 30.654 6.1483 30.5406C6.17698 30.4279 6.19093 30.3282 6.19014 30.2415C6.19009 30.153 6.17693 30.0761 6.15069 30.0107C6.12444 29.9453 6.08673 29.8901 6.03756 29.8449C5.98839 29.7998 5.92849 29.7629 5.85787 29.7344C5.76913 29.6985 5.68341 29.6839 5.60069 29.6905C5.51979 29.6979 5.44043 29.73 5.36261 29.7871C5.28553 29.8423 5.20907 29.9273 5.13324 30.042C5.05994 30.1556 4.98744 30.3012 4.91574 30.4786L4.55467 31.3723C4.49687 31.5154 4.45326 31.6442 4.42385 31.7587C4.39625 31.8739 4.38211 31.9767 4.38144 32.067C4.3833 32.1562 4.39609 32.2341 4.4198 32.3005C4.44605 32.3659 4.48376 32.4211 4.53293 32.4663C4.58391 32.5122 4.64471 32.5494 4.71533 32.5779C4.80226 32.613 4.88617 32.6269 4.96708 32.6196C5.05052 32.6112 5.13115 32.5784 5.20897 32.5214C5.28932 32.4633 5.36651 32.3765 5.44054 32.2611C5.51457 32.1456 5.58779 31.9983 5.66023 31.819ZM7.91173 33.8693C8.00771 33.9081 8.10013 33.9244 8.18901 33.9182C8.27863 33.9101 8.35779 33.881 8.42652 33.8309C8.49778 33.7796 8.55298 33.7082 8.5921 33.6165L9.32823 33.914C9.24301 34.1197 9.11352 34.2812 8.93975 34.3984C8.76671 34.5139 8.57008 34.5808 8.34986 34.5993C8.13038 34.616 7.90746 34.5786 7.68109 34.4871C7.45292 34.3949 7.26908 34.2764 7.12959 34.1316C6.9919 33.9875 6.89399 33.8257 6.83586 33.6464C6.77846 33.4652 6.7579 33.2736 6.7742 33.0716C6.79123 32.8679 6.84145 32.6628 6.92485 32.4563L6.95668 32.3775C7.04082 32.1693 7.14718 31.9869 7.27575 31.8303C7.40505 31.6719 7.55291 31.5483 7.71933 31.4597C7.88648 31.3692 8.06963 31.32 8.26877 31.312C8.46792 31.304 8.68067 31.3457 8.90703 31.4371C9.14788 31.5345 9.3402 31.6659 9.48397 31.8314C9.62956 31.9976 9.71921 32.1876 9.75293 32.4014C9.78918 32.614 9.76102 32.8375 9.66845 33.0719L8.93232 32.7745C8.97002 32.6759 8.98504 32.5788 8.9774 32.483C8.97156 32.388 8.94103 32.3019 8.88581 32.2248C8.83312 32.1467 8.75336 32.086 8.64652 32.0428C8.53243 31.9967 8.42929 31.9835 8.3371 32.0031C8.24564 32.021 8.16316 32.0635 8.08967 32.1307C8.0169 32.1961 7.95115 32.278 7.89242 32.3764C7.83623 32.4738 7.78509 32.5795 7.73899 32.6936L7.70716 32.7724C7.66107 32.8865 7.62405 32.999 7.5961 33.1099C7.56815 33.2207 7.55764 33.325 7.56455 33.4226C7.57328 33.5209 7.60435 33.6082 7.65776 33.6846C7.71117 33.7609 7.79583 33.8225 7.91173 33.8693ZM11.181 33.1269L10.2394 35.4575L9.45433 35.1403L10.6418 32.2012L11.3779 32.4987L11.181 33.1269ZM10.7661 33.8408L10.5488 33.753C10.6315 33.5484 10.7321 33.3699 10.8505 33.2177C10.9714 33.0643 11.1055 32.9436 11.2527 32.8556C11.4024 32.7666 11.5631 32.7156 11.7347 32.7028C11.9063 32.69 12.0862 32.7216 12.2746 32.7977C12.4049 32.8504 12.5164 32.9186 12.609 33.0023C12.7023 33.0843 12.771 33.1826 12.8152 33.2974C12.862 33.4111 12.8804 33.5428 12.8704 33.6925C12.8612 33.8405 12.8197 34.0059 12.7458 34.1888L11.9534 36.15L11.1711 35.8339L11.9283 33.9597C11.9825 33.8256 12.0061 33.7151 11.9991 33.628C11.9922 33.541 11.961 33.4694 11.9057 33.4134C11.8523 33.3581 11.7793 33.3117 11.687 33.2744C11.5856 33.2335 11.4884 33.2184 11.3955 33.2293C11.3045 33.241 11.2195 33.2741 11.1406 33.3286C11.0624 33.3812 10.9918 33.4517 10.9288 33.54C10.8657 33.6283 10.8115 33.7286 10.7661 33.8408ZM12.5517 34.458L12.2576 34.3802C12.3352 34.1883 12.4308 34.0194 12.5445 33.8737C12.66 33.7286 12.79 33.6126 12.9347 33.5257C13.0811 33.4396 13.2389 33.3906 13.4079 33.3789C13.5777 33.3653 13.755 33.3958 13.9397 33.4705C14.0809 33.5275 14.2011 33.6003 14.3002 33.6888C14.4 33.7755 14.4727 33.8796 14.5183 34.0013C14.5665 34.1219 14.5838 34.2615 14.5702 34.4204C14.5584 34.5799 14.5112 34.762 14.4285 34.9666L13.6701 36.8436L12.8851 36.5265L13.6435 34.6494C13.6983 34.5136 13.7219 34.4031 13.7142 34.3178C13.7091 34.2315 13.6785 34.1612 13.6225 34.107C13.569 34.0517 13.497 34.0057 13.4064 33.9691C13.3123 33.9311 13.2222 33.9168 13.1362 33.9263C13.0509 33.934 12.9716 33.9609 12.8982 34.0071C12.8248 34.0533 12.7587 34.115 12.7001 34.1925C12.6421 34.2681 12.5927 34.3566 12.5517 34.458Z" fill="white"/>
</svg>
