<svg width="37" height="29" viewBox="0 0 37 29" fill="none" xmlns="http://www.w3.org/2000/svg">
<path d="M7.25 3.26941C7.25 2.67267 7.48705 2.10038 7.90901 1.67842C8.33097 1.25646 8.90326 1.01941 9.5 1.01941H27.5C28.0967 1.01941 28.669 1.25646 29.091 1.67842C29.5129 2.10038 29.75 2.67267 29.75 3.26941V16.7694C29.75 17.3661 29.5129 17.9384 29.091 18.3604C28.669 18.7824 28.0967 19.0194 27.5 19.0194H9.5C8.90326 19.0194 8.33097 18.7824 7.90901 18.3604C7.48705 17.9384 7.25 17.3661 7.25 16.7694V3.26941Z" stroke="#2E2E2E" stroke-width="2" stroke-linecap="round" stroke-linejoin="round"/>
<path d="M7.25 5.51941L15.6886 12.2705C16.4866 12.909 17.4781 13.2568 18.5 13.2568C19.5219 13.2568 20.5134 12.909 21.3114 12.2705L29.75 5.51941" stroke="#2E2E2E" stroke-width="2" stroke-linejoin="round"/>
<path d="M2.1623 24.245V28.5194H1.31855V25.2177L0.304882 25.5399V24.8749L2.07148 24.245H2.1623ZM6.51207 26.0116V26.7499C6.51207 27.0702 6.47789 27.3466 6.40953 27.579C6.34117 27.8094 6.24254 27.9989 6.11363 28.1473C5.98668 28.2938 5.83531 28.4022 5.65953 28.4725C5.48375 28.5428 5.28844 28.578 5.07359 28.578C4.90172 28.578 4.74156 28.5565 4.59312 28.5135C4.44469 28.4686 4.3109 28.3993 4.19176 28.3055C4.07457 28.2118 3.97301 28.0936 3.88707 27.951C3.80309 27.8065 3.73863 27.6346 3.69371 27.4354C3.64879 27.2362 3.62633 27.0077 3.62633 26.7499V26.0116C3.62633 25.6913 3.66051 25.4169 3.72887 25.1884C3.79918 24.9579 3.89781 24.7694 4.02476 24.6229C4.15367 24.4764 4.30601 24.369 4.4818 24.3007C4.65758 24.2303 4.85289 24.1952 5.06773 24.1952C5.23961 24.1952 5.39879 24.2177 5.54527 24.2626C5.69371 24.3055 5.8275 24.3729 5.94664 24.4647C6.06578 24.5565 6.16734 24.6747 6.25133 24.8192C6.33531 24.9618 6.39976 25.1327 6.44469 25.3319C6.48961 25.5292 6.51207 25.7557 6.51207 26.0116ZM5.66539 26.8612V25.8973C5.66539 25.743 5.6566 25.6083 5.63902 25.493C5.6234 25.3778 5.59898 25.2802 5.56578 25.2001C5.53258 25.118 5.49156 25.0516 5.44273 25.0009C5.39391 24.9501 5.33824 24.913 5.27574 24.8895C5.21324 24.8661 5.14391 24.8544 5.06773 24.8544C4.97203 24.8544 4.88707 24.8729 4.81285 24.91C4.74059 24.9471 4.67906 25.0067 4.62828 25.0887C4.5775 25.1688 4.53844 25.2762 4.51109 25.411C4.4857 25.5438 4.47301 25.7059 4.47301 25.8973V26.8612C4.47301 27.0155 4.48082 27.1512 4.49644 27.2684C4.51402 27.3856 4.53941 27.4862 4.57262 27.5702C4.60777 27.6522 4.64879 27.7196 4.69566 27.7723C4.74449 27.8231 4.80016 27.8602 4.86266 27.8837C4.92711 27.9071 4.99742 27.9188 5.07359 27.9188C5.16734 27.9188 5.25035 27.9003 5.32262 27.8632C5.39684 27.8241 5.45934 27.7635 5.51012 27.6815C5.56285 27.5975 5.60191 27.4882 5.6273 27.3534C5.65269 27.2186 5.66539 27.0546 5.66539 26.8612ZM8.52101 27.9188C8.62453 27.9188 8.71633 27.8993 8.79641 27.8602C8.87648 27.8192 8.93898 27.7626 8.98391 27.6903C9.03078 27.6161 9.05519 27.5292 9.05715 27.4296H9.85109C9.84914 27.6522 9.78957 27.8505 9.67238 28.0243C9.55519 28.1962 9.39797 28.3319 9.2007 28.4315C9.00344 28.5292 8.78273 28.578 8.53859 28.578C8.2925 28.578 8.07766 28.537 7.89406 28.455C7.71242 28.3729 7.56105 28.2596 7.43996 28.1151C7.31887 27.9686 7.22805 27.7987 7.1675 27.6053C7.10695 27.41 7.07668 27.201 7.07668 26.9784V26.8934C7.07668 26.6688 7.10695 26.4598 7.1675 26.2665C7.22805 26.0712 7.31887 25.9012 7.43996 25.7567C7.56105 25.6102 7.71242 25.496 7.89406 25.4139C8.0757 25.3319 8.28859 25.2909 8.53273 25.2909C8.7925 25.2909 9.02004 25.3407 9.21535 25.4403C9.41262 25.5399 9.56691 25.6825 9.67824 25.868C9.79152 26.0516 9.84914 26.2694 9.85109 26.5214H9.05715C9.05519 26.4159 9.03273 26.3202 8.98976 26.2343C8.94875 26.1483 8.8882 26.08 8.80812 26.0292C8.73 25.9764 8.63332 25.9501 8.51809 25.9501C8.39504 25.9501 8.29445 25.9764 8.21633 26.0292C8.1382 26.08 8.07766 26.1503 8.03469 26.2401C7.99172 26.328 7.96144 26.4286 7.94387 26.5419C7.92824 26.6532 7.92043 26.7704 7.92043 26.8934V26.9784C7.92043 27.1014 7.92824 27.2196 7.94387 27.3329C7.95949 27.4462 7.98879 27.5468 8.03176 27.6346C8.07668 27.7225 8.1382 27.7919 8.21633 27.8427C8.29445 27.8934 8.39601 27.9188 8.52101 27.9188ZM11.2741 26.0057V28.5194H10.4274V25.3495H11.2214L11.2741 26.0057ZM11.1569 26.8231H10.9225C10.9225 26.6024 10.9489 26.3993 11.0016 26.2137C11.0563 26.0262 11.1354 25.8641 11.2389 25.7274C11.3444 25.5887 11.4743 25.4813 11.6286 25.4052C11.7829 25.329 11.9616 25.2909 12.1647 25.2909C12.3054 25.2909 12.4343 25.3124 12.5514 25.3553C12.6686 25.3964 12.7692 25.4618 12.8532 25.5516C12.9391 25.6395 13.0055 25.7548 13.0524 25.8973C13.0993 26.038 13.1227 26.2069 13.1227 26.4042V28.5194H12.279V26.4979C12.279 26.3534 12.2595 26.2421 12.2204 26.1639C12.1813 26.0858 12.1257 26.0311 12.0534 25.9999C11.9831 25.9686 11.8981 25.953 11.7985 25.953C11.6891 25.953 11.5934 25.9755 11.5114 26.0204C11.4313 26.0653 11.3649 26.1278 11.3122 26.2079C11.2595 26.286 11.2204 26.3778 11.195 26.4833C11.1696 26.5887 11.1569 26.702 11.1569 26.8231ZM13.0436 26.7264L12.7419 26.7645C12.7419 26.5575 12.7673 26.3651 12.818 26.1874C12.8708 26.0096 12.9479 25.8534 13.0495 25.7186C13.153 25.5839 13.2809 25.4794 13.4333 25.4052C13.5856 25.329 13.7614 25.2909 13.9606 25.2909C14.113 25.2909 14.2516 25.3134 14.3766 25.3583C14.5016 25.4012 14.6081 25.4706 14.696 25.5663C14.7858 25.66 14.8542 25.7831 14.9011 25.9354C14.9499 26.0878 14.9743 26.2743 14.9743 26.495V28.5194H14.1276V26.495C14.1276 26.3485 14.1081 26.2372 14.069 26.161C14.0319 26.0829 13.9772 26.0292 13.905 25.9999C13.8346 25.9686 13.7507 25.953 13.653 25.953C13.5514 25.953 13.4626 25.9735 13.3864 26.0145C13.3102 26.0536 13.2468 26.1083 13.196 26.1786C13.1452 26.2489 13.1071 26.3309 13.0817 26.4247C13.0563 26.5165 13.0436 26.6171 13.0436 26.7264ZM17.9814 25.3495L18.5059 26.3134L19.0449 25.3495H19.9443L19.0479 26.8993L19.9854 28.5194H19.083L18.5117 27.4999L17.9404 28.5194H17.0381L17.9756 26.8993L17.0791 25.3495H17.9814ZM24.0501 24.245V28.5194H23.2064V25.2177L22.1927 25.5399V24.8749L23.9593 24.245H24.0501ZM28.3999 26.0116V26.7499C28.3999 27.0702 28.3657 27.3466 28.2973 27.579C28.229 27.8094 28.1304 27.9989 28.0014 28.1473C27.8745 28.2938 27.7231 28.4022 27.5473 28.4725C27.3716 28.5428 27.1762 28.578 26.9614 28.578C26.7895 28.578 26.6294 28.5565 26.4809 28.5135C26.3325 28.4686 26.1987 28.3993 26.0796 28.3055C25.9624 28.2118 25.8608 28.0936 25.7749 27.951C25.6909 27.8065 25.6264 27.6346 25.5815 27.4354C25.5366 27.2362 25.5141 27.0077 25.5141 26.7499V26.0116C25.5141 25.6913 25.5483 25.4169 25.6167 25.1884C25.687 24.9579 25.7856 24.7694 25.9126 24.6229C26.0415 24.4764 26.1938 24.369 26.3696 24.3007C26.5454 24.2303 26.7407 24.1952 26.9555 24.1952C27.1274 24.1952 27.2866 24.2177 27.4331 24.2626C27.5815 24.3055 27.7153 24.3729 27.8345 24.4647C27.9536 24.5565 28.0552 24.6747 28.1391 24.8192C28.2231 24.9618 28.2876 25.1327 28.3325 25.3319C28.3774 25.5292 28.3999 25.7557 28.3999 26.0116ZM27.5532 26.8612V25.8973C27.5532 25.743 27.5444 25.6083 27.5268 25.493C27.5112 25.3778 27.4868 25.2802 27.4536 25.2001C27.4204 25.118 27.3794 25.0516 27.3305 25.0009C27.2817 24.9501 27.2261 24.913 27.1636 24.8895C27.1011 24.8661 27.0317 24.8544 26.9555 24.8544C26.8598 24.8544 26.7749 24.8729 26.7007 24.91C26.6284 24.9471 26.5669 25.0067 26.5161 25.0887C26.4653 25.1688 26.4262 25.2762 26.3989 25.411C26.3735 25.5438 26.3608 25.7059 26.3608 25.8973V26.8612C26.3608 27.0155 26.3686 27.1512 26.3843 27.2684C26.4018 27.3856 26.4272 27.4862 26.4604 27.5702C26.4956 27.6522 26.5366 27.7196 26.5835 27.7723C26.6323 27.8231 26.688 27.8602 26.7505 27.8837C26.8149 27.9071 26.8852 27.9188 26.9614 27.9188C27.0552 27.9188 27.1382 27.9003 27.2104 27.8632C27.2846 27.8241 27.3471 27.7635 27.3979 27.6815C27.4507 27.5975 27.4897 27.4882 27.5151 27.3534C27.5405 27.2186 27.5532 27.0546 27.5532 26.8612ZM30.4088 27.9188C30.5123 27.9188 30.6041 27.8993 30.6842 27.8602C30.7643 27.8192 30.8268 27.7626 30.8717 27.6903C30.9186 27.6161 30.943 27.5292 30.945 27.4296H31.7389C31.737 27.6522 31.6774 27.8505 31.5602 28.0243C31.443 28.1962 31.2858 28.3319 31.0885 28.4315C30.8912 28.5292 30.6705 28.578 30.4264 28.578C30.1803 28.578 29.9655 28.537 29.7819 28.455C29.6002 28.3729 29.4489 28.2596 29.3278 28.1151C29.2067 27.9686 29.1159 27.7987 29.0553 27.6053C28.9948 27.41 28.9645 27.201 28.9645 26.9784V26.8934C28.9645 26.6688 28.9948 26.4598 29.0553 26.2665C29.1159 26.0712 29.2067 25.9012 29.3278 25.7567C29.4489 25.6102 29.6002 25.496 29.7819 25.4139C29.9635 25.3319 30.1764 25.2909 30.4205 25.2909C30.6803 25.2909 30.9079 25.3407 31.1032 25.4403C31.3004 25.5399 31.4547 25.6825 31.5661 25.868C31.6793 26.0516 31.737 26.2694 31.7389 26.5214H30.945C30.943 26.4159 30.9205 26.3202 30.8776 26.2343C30.8366 26.1483 30.776 26.08 30.6959 26.0292C30.6178 25.9764 30.5211 25.9501 30.4059 25.9501C30.2829 25.9501 30.1823 25.9764 30.1041 26.0292C30.026 26.08 29.9655 26.1503 29.9225 26.2401C29.8795 26.328 29.8493 26.4286 29.8317 26.5419C29.8161 26.6532 29.8082 26.7704 29.8082 26.8934V26.9784C29.8082 27.1014 29.8161 27.2196 29.8317 27.3329C29.8473 27.4462 29.8766 27.5468 29.9196 27.6346C29.9645 27.7225 30.026 27.7919 30.1041 27.8427C30.1823 27.8934 30.2838 27.9188 30.4088 27.9188ZM33.1619 26.0057V28.5194H32.3152V25.3495H33.1092L33.1619 26.0057ZM33.0447 26.8231H32.8104C32.8104 26.6024 32.8367 26.3993 32.8895 26.2137C32.9441 26.0262 33.0232 25.8641 33.1268 25.7274C33.2322 25.5887 33.3621 25.4813 33.5164 25.4052C33.6707 25.329 33.8494 25.2909 34.0525 25.2909C34.1932 25.2909 34.3221 25.3124 34.4393 25.3553C34.5564 25.3964 34.657 25.4618 34.741 25.5516C34.827 25.6395 34.8934 25.7548 34.9402 25.8973C34.9871 26.038 35.0105 26.2069 35.0105 26.4042V28.5194H34.1668V26.4979C34.1668 26.3534 34.1473 26.2421 34.1082 26.1639C34.0691 26.0858 34.0135 26.0311 33.9412 25.9999C33.8709 25.9686 33.7859 25.953 33.6863 25.953C33.577 25.953 33.4813 25.9755 33.3992 26.0204C33.3191 26.0653 33.2527 26.1278 33.2 26.2079C33.1473 26.286 33.1082 26.3778 33.0828 26.4833C33.0574 26.5887 33.0447 26.702 33.0447 26.8231ZM34.9314 26.7264L34.6297 26.7645C34.6297 26.5575 34.6551 26.3651 34.7059 26.1874C34.7586 26.0096 34.8357 25.8534 34.9373 25.7186C35.0408 25.5839 35.1688 25.4794 35.3211 25.4052C35.4734 25.329 35.6492 25.2909 35.8484 25.2909C36.0008 25.2909 36.1395 25.3134 36.2645 25.3583C36.3895 25.4012 36.4959 25.4706 36.5838 25.5663C36.6736 25.66 36.742 25.7831 36.7889 25.9354C36.8377 26.0878 36.8621 26.2743 36.8621 26.495V28.5194H36.0154V26.495C36.0154 26.3485 35.9959 26.2372 35.9568 26.161C35.9197 26.0829 35.865 26.0292 35.7928 25.9999C35.7225 25.9686 35.6385 25.953 35.5408 25.953C35.4393 25.953 35.3504 25.9735 35.2742 26.0145C35.198 26.0536 35.1346 26.1083 35.0838 26.1786C35.033 26.2489 34.9949 26.3309 34.9695 26.4247C34.9441 26.5165 34.9314 26.6171 34.9314 26.7264Z" fill="#2E2E2E"/>
</svg>
