<svg width="38" height="29" viewBox="0 0 38 29" fill="none" xmlns="http://www.w3.org/2000/svg">
<path d="M7.75 3.26941C7.75 2.67267 7.98705 2.10038 8.40901 1.67842C8.83097 1.25646 9.40326 1.01941 10 1.01941H28C28.5967 1.01941 29.169 1.25646 29.591 1.67842C30.0129 2.10038 30.25 2.67267 30.25 3.26941V16.7694C30.25 17.3661 30.0129 17.9384 29.591 18.3604C29.169 18.7824 28.5967 19.0194 28 19.0194H10C9.40326 19.0194 8.83097 18.7824 8.40901 18.3604C7.98705 17.9384 7.75 17.3661 7.75 16.7694V3.26941Z" stroke="white" stroke-width="2" stroke-linecap="round" stroke-linejoin="round"/>
<path d="M7.75 5.51941L16.1886 12.2705C16.9866 12.909 17.9781 13.2568 19 13.2568C20.0219 13.2568 21.0134 12.909 21.8114 12.2705L30.25 5.51941" stroke="white" stroke-width="2" stroke-linejoin="round"/>
<path d="M2.6623 24.245V28.5194H1.81855V25.2177L0.804882 25.5399V24.8749L2.57148 24.245H2.6623ZM7.01207 26.0116V26.7499C7.01207 27.0702 6.97789 27.3466 6.90953 27.579C6.84117 27.8094 6.74254 27.9989 6.61363 28.1473C6.48668 28.2938 6.33531 28.4022 6.15953 28.4725C5.98375 28.5428 5.78844 28.578 5.57359 28.578C5.40172 28.578 5.24156 28.5565 5.09312 28.5135C4.94469 28.4686 4.8109 28.3993 4.69176 28.3055C4.57457 28.2118 4.47301 28.0936 4.38707 27.951C4.30309 27.8065 4.23863 27.6346 4.19371 27.4354C4.14879 27.2362 4.12633 27.0077 4.12633 26.7499V26.0116C4.12633 25.6913 4.16051 25.4169 4.22887 25.1884C4.29918 24.9579 4.39781 24.7694 4.52476 24.6229C4.65367 24.4764 4.80601 24.369 4.9818 24.3007C5.15758 24.2303 5.35289 24.1952 5.56773 24.1952C5.73961 24.1952 5.89879 24.2177 6.04527 24.2626C6.19371 24.3055 6.3275 24.3729 6.44664 24.4647C6.56578 24.5565 6.66734 24.6747 6.75133 24.8192C6.83531 24.9618 6.89976 25.1327 6.94469 25.3319C6.98961 25.5292 7.01207 25.7557 7.01207 26.0116ZM6.16539 26.8612V25.8973C6.16539 25.743 6.1566 25.6083 6.13902 25.493C6.1234 25.3778 6.09898 25.2802 6.06578 25.2001C6.03258 25.118 5.99156 25.0516 5.94273 25.0009C5.89391 24.9501 5.83824 24.913 5.77574 24.8895C5.71324 24.8661 5.64391 24.8544 5.56773 24.8544C5.47203 24.8544 5.38707 24.8729 5.31285 24.91C5.24059 24.9471 5.17906 25.0067 5.12828 25.0887C5.0775 25.1688 5.03844 25.2762 5.01109 25.411C4.9857 25.5438 4.97301 25.7059 4.97301 25.8973V26.8612C4.97301 27.0155 4.98082 27.1512 4.99644 27.2684C5.01402 27.3856 5.03941 27.4862 5.07262 27.5702C5.10777 27.6522 5.14879 27.7196 5.19566 27.7723C5.24449 27.8231 5.30016 27.8602 5.36266 27.8837C5.42711 27.9071 5.49742 27.9188 5.57359 27.9188C5.66734 27.9188 5.75035 27.9003 5.82262 27.8632C5.89684 27.8241 5.95934 27.7635 6.01012 27.6815C6.06285 27.5975 6.10191 27.4882 6.1273 27.3534C6.15269 27.2186 6.16539 27.0546 6.16539 26.8612ZM9.02101 27.9188C9.12453 27.9188 9.21633 27.8993 9.29641 27.8602C9.37648 27.8192 9.43898 27.7626 9.48391 27.6903C9.53078 27.6161 9.55519 27.5292 9.55715 27.4296H10.3511C10.3491 27.6522 10.2896 27.8505 10.1724 28.0243C10.0552 28.1962 9.89797 28.3319 9.7007 28.4315C9.50344 28.5292 9.28273 28.578 9.03859 28.578C8.7925 28.578 8.57766 28.537 8.39406 28.455C8.21242 28.3729 8.06105 28.2596 7.93996 28.1151C7.81887 27.9686 7.72805 27.7987 7.6675 27.6053C7.60695 27.41 7.57668 27.201 7.57668 26.9784V26.8934C7.57668 26.6688 7.60695 26.4598 7.6675 26.2665C7.72805 26.0712 7.81887 25.9012 7.93996 25.7567C8.06105 25.6102 8.21242 25.496 8.39406 25.4139C8.5757 25.3319 8.78859 25.2909 9.03273 25.2909C9.2925 25.2909 9.52004 25.3407 9.71535 25.4403C9.91262 25.5399 10.0669 25.6825 10.1782 25.868C10.2915 26.0516 10.3491 26.2694 10.3511 26.5214H9.55715C9.55519 26.4159 9.53273 26.3202 9.48976 26.2343C9.44875 26.1483 9.3882 26.08 9.30812 26.0292C9.23 25.9764 9.13332 25.9501 9.01809 25.9501C8.89504 25.9501 8.79445 25.9764 8.71633 26.0292C8.6382 26.08 8.57766 26.1503 8.53469 26.2401C8.49172 26.328 8.46144 26.4286 8.44387 26.5419C8.42824 26.6532 8.42043 26.7704 8.42043 26.8934V26.9784C8.42043 27.1014 8.42824 27.2196 8.44387 27.3329C8.45949 27.4462 8.48879 27.5468 8.53176 27.6346C8.57668 27.7225 8.6382 27.7919 8.71633 27.8427C8.79445 27.8934 8.89601 27.9188 9.02101 27.9188ZM11.7741 26.0057V28.5194H10.9274V25.3495H11.7214L11.7741 26.0057ZM11.6569 26.8231H11.4225C11.4225 26.6024 11.4489 26.3993 11.5016 26.2137C11.5563 26.0262 11.6354 25.8641 11.7389 25.7274C11.8444 25.5887 11.9743 25.4813 12.1286 25.4052C12.2829 25.329 12.4616 25.2909 12.6647 25.2909C12.8054 25.2909 12.9343 25.3124 13.0514 25.3553C13.1686 25.3964 13.2692 25.4618 13.3532 25.5516C13.4391 25.6395 13.5055 25.7548 13.5524 25.8973C13.5993 26.038 13.6227 26.2069 13.6227 26.4042V28.5194H12.779V26.4979C12.779 26.3534 12.7595 26.2421 12.7204 26.1639C12.6813 26.0858 12.6257 26.0311 12.5534 25.9999C12.4831 25.9686 12.3981 25.953 12.2985 25.953C12.1891 25.953 12.0934 25.9755 12.0114 26.0204C11.9313 26.0653 11.8649 26.1278 11.8122 26.2079C11.7595 26.286 11.7204 26.3778 11.695 26.4833C11.6696 26.5887 11.6569 26.702 11.6569 26.8231ZM13.5436 26.7264L13.2419 26.7645C13.2419 26.5575 13.2673 26.3651 13.318 26.1874C13.3708 26.0096 13.4479 25.8534 13.5495 25.7186C13.653 25.5839 13.7809 25.4794 13.9333 25.4052C14.0856 25.329 14.2614 25.2909 14.4606 25.2909C14.613 25.2909 14.7516 25.3134 14.8766 25.3583C15.0016 25.4012 15.1081 25.4706 15.196 25.5663C15.2858 25.66 15.3542 25.7831 15.4011 25.9354C15.4499 26.0878 15.4743 26.2743 15.4743 26.495V28.5194H14.6276V26.495C14.6276 26.3485 14.6081 26.2372 14.569 26.161C14.5319 26.0829 14.4772 26.0292 14.405 25.9999C14.3346 25.9686 14.2507 25.953 14.153 25.953C14.0514 25.953 13.9626 25.9735 13.8864 26.0145C13.8102 26.0536 13.7468 26.1083 13.696 26.1786C13.6452 26.2489 13.6071 26.3309 13.5817 26.4247C13.5563 26.5165 13.5436 26.6171 13.5436 26.7264ZM18.4814 25.3495L19.0059 26.3134L19.5449 25.3495H20.4443L19.5479 26.8993L20.4854 28.5194H19.583L19.0117 27.4999L18.4404 28.5194H17.5381L18.4756 26.8993L17.5791 25.3495H18.4814ZM24.5501 24.245V28.5194H23.7064V25.2177L22.6927 25.5399V24.8749L24.4593 24.245H24.5501ZM28.8999 26.0116V26.7499C28.8999 27.0702 28.8657 27.3466 28.7973 27.579C28.729 27.8094 28.6304 27.9989 28.5014 28.1473C28.3745 28.2938 28.2231 28.4022 28.0473 28.4725C27.8716 28.5428 27.6762 28.578 27.4614 28.578C27.2895 28.578 27.1294 28.5565 26.9809 28.5135C26.8325 28.4686 26.6987 28.3993 26.5796 28.3055C26.4624 28.2118 26.3608 28.0936 26.2749 27.951C26.1909 27.8065 26.1264 27.6346 26.0815 27.4354C26.0366 27.2362 26.0141 27.0077 26.0141 26.7499V26.0116C26.0141 25.6913 26.0483 25.4169 26.1167 25.1884C26.187 24.9579 26.2856 24.7694 26.4126 24.6229C26.5415 24.4764 26.6938 24.369 26.8696 24.3007C27.0454 24.2303 27.2407 24.1952 27.4555 24.1952C27.6274 24.1952 27.7866 24.2177 27.9331 24.2626C28.0815 24.3055 28.2153 24.3729 28.3345 24.4647C28.4536 24.5565 28.5552 24.6747 28.6391 24.8192C28.7231 24.9618 28.7876 25.1327 28.8325 25.3319C28.8774 25.5292 28.8999 25.7557 28.8999 26.0116ZM28.0532 26.8612V25.8973C28.0532 25.743 28.0444 25.6083 28.0268 25.493C28.0112 25.3778 27.9868 25.2802 27.9536 25.2001C27.9204 25.118 27.8794 25.0516 27.8305 25.0009C27.7817 24.9501 27.7261 24.913 27.6636 24.8895C27.6011 24.8661 27.5317 24.8544 27.4555 24.8544C27.3598 24.8544 27.2749 24.8729 27.2007 24.91C27.1284 24.9471 27.0669 25.0067 27.0161 25.0887C26.9653 25.1688 26.9262 25.2762 26.8989 25.411C26.8735 25.5438 26.8608 25.7059 26.8608 25.8973V26.8612C26.8608 27.0155 26.8686 27.1512 26.8843 27.2684C26.9018 27.3856 26.9272 27.4862 26.9604 27.5702C26.9956 27.6522 27.0366 27.7196 27.0835 27.7723C27.1323 27.8231 27.188 27.8602 27.2505 27.8837C27.3149 27.9071 27.3852 27.9188 27.4614 27.9188C27.5552 27.9188 27.6382 27.9003 27.7104 27.8632C27.7846 27.8241 27.8471 27.7635 27.8979 27.6815C27.9507 27.5975 27.9897 27.4882 28.0151 27.3534C28.0405 27.2186 28.0532 27.0546 28.0532 26.8612ZM30.9088 27.9188C31.0123 27.9188 31.1041 27.8993 31.1842 27.8602C31.2643 27.8192 31.3268 27.7626 31.3717 27.6903C31.4186 27.6161 31.443 27.5292 31.445 27.4296H32.2389C32.237 27.6522 32.1774 27.8505 32.0602 28.0243C31.943 28.1962 31.7858 28.3319 31.5885 28.4315C31.3912 28.5292 31.1705 28.578 30.9264 28.578C30.6803 28.578 30.4655 28.537 30.2819 28.455C30.1002 28.3729 29.9489 28.2596 29.8278 28.1151C29.7067 27.9686 29.6159 27.7987 29.5553 27.6053C29.4948 27.41 29.4645 27.201 29.4645 26.9784V26.8934C29.4645 26.6688 29.4948 26.4598 29.5553 26.2665C29.6159 26.0712 29.7067 25.9012 29.8278 25.7567C29.9489 25.6102 30.1002 25.496 30.2819 25.4139C30.4635 25.3319 30.6764 25.2909 30.9205 25.2909C31.1803 25.2909 31.4079 25.3407 31.6032 25.4403C31.8004 25.5399 31.9547 25.6825 32.0661 25.868C32.1793 26.0516 32.237 26.2694 32.2389 26.5214H31.445C31.443 26.4159 31.4205 26.3202 31.3776 26.2343C31.3366 26.1483 31.276 26.08 31.1959 26.0292C31.1178 25.9764 31.0211 25.9501 30.9059 25.9501C30.7829 25.9501 30.6823 25.9764 30.6041 26.0292C30.526 26.08 30.4655 26.1503 30.4225 26.2401C30.3795 26.328 30.3493 26.4286 30.3317 26.5419C30.3161 26.6532 30.3082 26.7704 30.3082 26.8934V26.9784C30.3082 27.1014 30.3161 27.2196 30.3317 27.3329C30.3473 27.4462 30.3766 27.5468 30.4196 27.6346C30.4645 27.7225 30.526 27.7919 30.6041 27.8427C30.6823 27.8934 30.7838 27.9188 30.9088 27.9188ZM33.6619 26.0057V28.5194H32.8152V25.3495H33.6092L33.6619 26.0057ZM33.5447 26.8231H33.3104C33.3104 26.6024 33.3367 26.3993 33.3895 26.2137C33.4441 26.0262 33.5232 25.8641 33.6268 25.7274C33.7322 25.5887 33.8621 25.4813 34.0164 25.4052C34.1707 25.329 34.3494 25.2909 34.5525 25.2909C34.6932 25.2909 34.8221 25.3124 34.9393 25.3553C35.0564 25.3964 35.157 25.4618 35.241 25.5516C35.327 25.6395 35.3934 25.7548 35.4402 25.8973C35.4871 26.038 35.5105 26.2069 35.5105 26.4042V28.5194H34.6668V26.4979C34.6668 26.3534 34.6473 26.2421 34.6082 26.1639C34.5691 26.0858 34.5135 26.0311 34.4412 25.9999C34.3709 25.9686 34.2859 25.953 34.1863 25.953C34.077 25.953 33.9813 25.9755 33.8992 26.0204C33.8191 26.0653 33.7527 26.1278 33.7 26.2079C33.6473 26.286 33.6082 26.3778 33.5828 26.4833C33.5574 26.5887 33.5447 26.702 33.5447 26.8231ZM35.4314 26.7264L35.1297 26.7645C35.1297 26.5575 35.1551 26.3651 35.2059 26.1874C35.2586 26.0096 35.3357 25.8534 35.4373 25.7186C35.5408 25.5839 35.6688 25.4794 35.8211 25.4052C35.9734 25.329 36.1492 25.2909 36.3484 25.2909C36.5008 25.2909 36.6395 25.3134 36.7645 25.3583C36.8895 25.4012 36.9959 25.4706 37.0838 25.5663C37.1736 25.66 37.242 25.7831 37.2889 25.9354C37.3377 26.0878 37.3621 26.2743 37.3621 26.495V28.5194H36.5154V26.495C36.5154 26.3485 36.4959 26.2372 36.4568 26.161C36.4197 26.0829 36.365 26.0292 36.2928 25.9999C36.2225 25.9686 36.1385 25.953 36.0408 25.953C35.9393 25.953 35.8504 25.9735 35.7742 26.0145C35.698 26.0536 35.6346 26.1083 35.5838 26.1786C35.533 26.2489 35.4949 26.3309 35.4695 26.4247C35.4441 26.5165 35.4314 26.6171 35.4314 26.7264Z" fill="white"/>
</svg>
